<svg xmlns="http://www.w3.org/2000/svg" xmlns:xlink="http://www.w3.org/1999/xlink" width="25" height="30" viewBox="0 0 25 30">
  <defs>
    <clipPath id="clip-path">
      <rect id="長方形_25072" data-name="長方形 25072" width="25" height="30" transform="translate(-24049 -14615)" fill="none" stroke="#707070" stroke-width="1"/>
    </clipPath>
  </defs>
  <g id="マスクグループ_17550" data-name="マスクグループ 17550" transform="translate(24049 14615)" clip-path="url(#clip-path)">
    <g id="グループ_18174" data-name="グループ 18174" transform="translate(-24046 -14612.719)">
      <g id="グループ_18176" data-name="グループ 18176" transform="translate(0.001 0.001)">
        <path id="パス_46652" data-name="パス 46652" d="M16.573,22.9a.51.51,0,0,1,0-1.02,2.645,2.645,0,0,0,2.573-1.36.51.51,0,0,1,.671-.277c2.457,1.037,5.209-1.435,5.236-1.46a.51.51,0,0,1,.689.752c-.126.115-2.976,2.685-5.9,1.8A3.769,3.769,0,0,1,16.573,22.9" transform="translate(-13.332 -15.475)" fill="#173697"/>
        <path id="パス_46652_-_アウトライン" data-name="パス 46652 - アウトライン" d="M16.573,23.045a.66.66,0,1,1,0-1.32,2.482,2.482,0,0,0,2.434-1.268.66.66,0,0,1,.868-.358,3.144,3.144,0,0,0,1.23.242,6.756,6.756,0,0,0,3.847-1.675.66.66,0,0,1,.892.973,8.01,8.01,0,0,1-4.729,2.025,4.541,4.541,0,0,1-1.208-.161A3.937,3.937,0,0,1,16.573,23.045Zm3.045-2.7a.36.36,0,0,0-.333.224,2.782,2.782,0,0,1-2.712,1.454.36.36,0,1,0,0,.72,3.625,3.625,0,0,0,3.149-1.5l.062-.09.1.032a4.224,4.224,0,0,0,1.225.178,7.686,7.686,0,0,0,4.526-1.947.36.36,0,0,0-.486-.531,7.025,7.025,0,0,1-4.05,1.753,3.442,3.442,0,0,1-1.346-.266A.358.358,0,0,0,19.618,20.347Z" transform="translate(-13.332 -15.475)" fill="#173697"/>
        <path id="パス_46653" data-name="パス 46653" d="M18.667,78.683H.532a.51.51,0,0,1-.51-.491C-.258,70.806,2.19,69.532,3.978,68.6c.236-.123.46-.239.653-.36,1.36-.85,1.061-3.262,1.057-3.286A.51.51,0,0,1,6.7,64.82c.017.125.391,3.086-1.527,4.286-.228.142-.469.268-.723.4-1.592.829-3.563,1.855-3.422,8.158H18.172c.141-6.3-1.83-7.329-3.422-8.158-.255-.133-.5-.258-.723-.4-1.919-1.2-1.544-4.16-1.528-4.286a.51.51,0,0,1,1.011.135c0,.024-.3,2.436,1.057,3.286.194.121.417.237.653.36,1.788.931,4.236,2.205,3.956,9.592a.51.51,0,0,1-.51.491" transform="translate(-0.001 -53.434)" fill="#173697"/>
        <path id="パス_46653_-_アウトライン" data-name="パス 46653 - アウトライン" d="M18.667,78.833H.532a.658.658,0,0,1-.66-.635c-.285-7.481,2.213-8.781,4.036-9.731.233-.121.453-.235.643-.355,1.275-.8.991-3.116.988-3.139A.66.66,0,0,1,6.849,64.8c.017.129.4,3.183-1.6,4.433-.232.145-.475.271-.732.405a5.036,5.036,0,0,0-2.3,1.97c-.749,1.275-1.091,3.208-1.044,5.906H18.025c.047-2.7-.295-4.631-1.044-5.906a5.033,5.033,0,0,0-2.3-1.969l-.01-.005c-.254-.132-.494-.257-.724-.4-2-1.25-1.614-4.3-1.6-4.433a.66.66,0,0,1,1.309.175c0,.024-.291,2.339.988,3.139.191.12.421.239.643.354,1.824.949,4.321,2.249,4.036,9.731A.658.658,0,0,1,18.667,78.833ZM6.2,64.528a.361.361,0,0,0-.358.407c0,.025.32,2.528-1.127,3.433-.2.125-.425.242-.664.366C2.3,69.646-.1,70.9.173,78.187a.359.359,0,0,0,.36.346H18.667a.359.359,0,0,0,.36-.346c.277-7.292-2.123-8.541-3.875-9.453-.227-.118-.462-.24-.664-.366-1.439-.9-1.13-3.409-1.126-3.434a.36.36,0,0,0-.714-.094c-.016.122-.378,2.99,1.458,4.139.22.138.455.26.7.39l.01.005c1.624.845,3.646,1.9,3.5,8.294l0,.147H.88l0-.147c-.143-6.4,1.878-7.448,3.5-8.294.253-.132.491-.256.713-.394,1.837-1.148,1.475-4.017,1.458-4.139A.36.36,0,0,0,6.2,64.528Z" transform="translate(-0.001 -53.434)" fill="#173697"/>
        <path id="パス_46654" data-name="パス 46654" d="M22.661,13.467c-2.784,0-4.268-2.815-4.664-3.7A2.893,2.893,0,0,1,16.01,7.666a2,2,0,0,1,.177-1.713,1.567,1.567,0,0,1,.732-.565C17.492,2.055,19.76,0,22.9,0c3.113,0,5.2,1.958,5.777,5.387a1.566,1.566,0,0,1,.731.565,2,2,0,0,1,.177,1.713A2.893,2.893,0,0,1,27.6,9.771c-.4.9-1.928,3.787-4.8,3.694l-.138,0m-.091-1.038.05,0q.09.009.179.012c.059,0,.118-.006.178-.012a.517.517,0,0,1,.149.007c2.4-.172,3.615-3.253,3.628-3.286a.511.511,0,0,1,.41-.324A1.875,1.875,0,0,0,28.6,7.4a1.139,1.139,0,0,0-.026-.861.638.638,0,0,0-.407-.24.52.52,0,0,1-.449-.439c-.42-3.121-2.131-4.84-4.817-4.84-2.738,0-4.617,1.809-5.025,4.84a.51.51,0,0,1-.457.44.638.638,0,0,0-.4.239,1.139,1.139,0,0,0-.026.861A1.875,1.875,0,0,0,18.437,8.83a.518.518,0,0,1,.406.324c.013.033,1.225,3.113,3.628,3.286a.512.512,0,0,1,.1-.01" transform="translate(-13.2 -0.001)" fill="#173697"/>
        <path id="パス_46654_-_アウトライン" data-name="パス 46654 - アウトライン" d="M22.661,13.617h0c-2.811,0-4.333-2.77-4.773-3.723A3.022,3.022,0,0,1,15.865,7.7a2.139,2.139,0,0,1,.2-1.838,1.707,1.707,0,0,1,.722-.587,6.867,6.867,0,0,1,2.061-3.947A5.938,5.938,0,0,1,22.9-.149c3.155,0,5.305,1.978,5.911,5.43a1.707,1.707,0,0,1,.72.586,2.139,2.139,0,0,1,.2,1.838,3.022,3.022,0,0,1-2.024,2.19c-.439.953-1.96,3.723-4.775,3.723l-.135,0-.138,0ZM22.9.151a5.643,5.643,0,0,0-3.855,1.4,6.6,6.6,0,0,0-1.981,3.857l-.014.084-.079.031a1.4,1.4,0,0,0-.663.51,1.857,1.857,0,0,0-.156,1.589,2.732,2.732,0,0,0,1.886,2l.066.02.028.062c.381.846,1.832,3.608,4.527,3.608h0l.133,0h.01c2.783.09,4.273-2.746,4.66-3.606l.028-.063.066-.02a2.732,2.732,0,0,0,1.886-2,1.857,1.857,0,0,0-.156-1.589,1.4,1.4,0,0,0-.662-.51l-.08-.031-.014-.084a6.666,6.666,0,0,0-1.89-3.894A5.284,5.284,0,0,0,22.9.151Zm-.1,12.443h-.006c-.063,0-.126-.007-.188-.013a.353.353,0,0,0-.105.005l-.02,0h-.02c-2.495-.179-3.745-3.349-3.757-3.381a.37.37,0,0,0-.288-.229A2.025,2.025,0,0,1,16.85,7.439a1.207,1.207,0,0,1,.047-.983.723.723,0,0,1,.365-.268l0-.023.147-.014a.358.358,0,0,0,.322-.31C18.148,2.729,20.082.871,22.9.871c2.771,0,4.534,1.765,4.965,4.97a.371.371,0,0,0,.32.31.784.784,0,0,1,.513.305,1.207,1.207,0,0,1,.047.983,2.028,2.028,0,0,1-1.56,1.538.361.361,0,0,0-.293.229c-.012.032-1.26,3.2-3.757,3.382h-.02l-.02,0a.366.366,0,0,0-.106-.005c-.063.006-.124.01-.187.013Zm-.229-.315a.65.65,0,0,1,.065,0c.054.005.109.009.164.012s.109-.006.164-.012a.661.661,0,0,1,.171.006c2.29-.179,3.469-3.159,3.48-3.189a.66.66,0,0,1,.531-.418,1.72,1.72,0,0,0,1.312-1.319.976.976,0,0,0-.006-.738.49.49,0,0,0-.3-.175.666.666,0,0,1-.578-.568c-.409-3.037-2.067-4.71-4.668-4.71-2.656,0-4.479,1.761-4.876,4.71a.657.657,0,0,1-.445.538v.007l-.06.01a.672.672,0,0,1-.08.013.487.487,0,0,0-.3.174.976.976,0,0,0-.006.738,1.717,1.717,0,0,0,1.319,1.32.666.666,0,0,1,.524.418c.011.03,1.192,3.008,3.48,3.188A.662.662,0,0,1,22.57,12.279Z" transform="translate(-13.2 -0.001)" fill="#173697"/>
        <path id="パス_46655" data-name="パス 46655" d="M35.616,89.909a.51.51,0,0,1-.5-.613l.934-4.533-1.312-1.517a.51.51,0,0,1-.028-.632l1.011-1.4a3.9,3.9,0,0,1-2.6-2.15.51.51,0,0,1,.937-.4,3.219,3.219,0,0,0,2.581,1.7.51.51,0,0,1,.38.807l-1.241,1.722,1.213,1.4a.51.51,0,0,1,.114.437l-.984,4.78a.51.51,0,0,1-.5.407" transform="translate(-27.452 -65.03)" fill="#173697"/>
        <path id="パス_46655_-_アウトライン" data-name="パス 46655 - アウトライン" d="M35.616,90.059a.664.664,0,0,1-.134-.014.66.66,0,0,1-.513-.78l.919-4.461-1.264-1.461a.657.657,0,0,1-.036-.818l.889-1.233a3.955,3.955,0,0,1-2.5-2.172A.66.66,0,1,1,34.19,78.6,3.08,3.08,0,0,0,36.644,80.2a.66.66,0,0,1,.491,1.045l-1.172,1.625L37.1,84.188a.664.664,0,0,1,.147.565l-.984,4.78A.663.663,0,0,1,35.616,90.059ZM33.584,78.5a.36.36,0,0,0-.33.5,3.73,3.73,0,0,0,2.508,2.065l.206.059L34.831,82.7a.358.358,0,0,0,.02.446l1.361,1.573-.949,4.606a.36.36,0,0,0,.28.425.36.36,0,0,0,.425-.28l.984-4.78a.363.363,0,0,0-.08-.308l-1.291-1.492,1.311-1.818a.36.36,0,0,0-.268-.57,3.359,3.359,0,0,1-2.709-1.787A.36.36,0,0,0,33.584,78.5Z" transform="translate(-27.452 -65.03)" fill="#173697"/>
        <path id="パス_46656" data-name="パス 46656" d="M57.377,89.91a.51.51,0,0,1-.5-.407l-.985-4.78a.51.51,0,0,1,.114-.437l1.213-1.4-1.241-1.722a.51.51,0,0,1,.38-.807,3.251,3.251,0,0,0,2.582-1.7.51.51,0,0,1,.937.4,3.9,3.9,0,0,1-2.605,2.15l1.011,1.4a.51.51,0,0,1-.028.632l-1.313,1.517.934,4.533a.51.51,0,0,1-.5.613" transform="translate(-46.383 -65.031)" fill="#173697"/>
        <path id="パス_46656_-_アウトライン" data-name="パス 46656 - アウトライン" d="M57.377,90.06a.663.663,0,0,1-.646-.527l-.985-4.78a.664.664,0,0,1,.147-.565l1.136-1.313L55.857,81.25a.66.66,0,0,1,.491-1.045A3.112,3.112,0,0,0,58.8,78.6a.66.66,0,0,1,1.212.522,3.956,3.956,0,0,1-2.5,2.172l.889,1.233a.657.657,0,0,1-.036.818L57.1,84.806l.919,4.461a.66.66,0,0,1-.647.793ZM59.409,78.5a.36.36,0,0,0-.331.218A3.387,3.387,0,0,1,56.369,80.5a.36.36,0,0,0-.268.57l1.311,1.818L56.12,84.385a.363.363,0,0,0-.08.308l.985,4.78a.36.36,0,1,0,.705-.145l-.949-4.606,1.361-1.573a.358.358,0,0,0,.02-.446l-1.137-1.576.206-.059A3.731,3.731,0,0,0,59.739,79a.36.36,0,0,0-.33-.5Z" transform="translate(-46.383 -65.031)" fill="#173697"/>
        <path id="パス_46657" data-name="パス 46657" d="M28.573,98.83a.51.51,0,0,1-.484-.351L25.135,89.5a.51.51,0,0,1,.969-.319l2.954,8.981a.51.51,0,0,1-.484.67" transform="translate(-20.841 -73.728)" fill="#173697"/>
        <path id="パス_46657_-_アウトライン" data-name="パス 46657 - アウトライン" d="M28.573,98.98a.659.659,0,0,1-.627-.454l-2.954-8.981a.66.66,0,1,1,1.254-.412L29.2,98.113a.66.66,0,0,1-.627.866Zm-2.954-10a.36.36,0,0,0-.342.473l2.954,8.981a.36.36,0,1,0,.684-.225l-2.954-8.981A.359.359,0,0,0,25.619,88.979Z" transform="translate(-20.841 -73.728)" fill="#173697"/>
        <path id="パス_46658" data-name="パス 46658" d="M65.806,98.831a.51.51,0,0,1-.484-.67l2.954-8.981a.51.51,0,1,1,.969.319L66.29,98.48a.51.51,0,0,1-.484.351" transform="translate(-54.196 -73.729)" fill="#173697"/>
        <path id="パス_46658_-_アウトライン" data-name="パス 46658 - アウトライン" d="M65.806,98.981a.66.66,0,0,1-.627-.867l2.954-8.981a.66.66,0,1,1,1.254.413l-2.954,8.981A.659.659,0,0,1,65.806,98.981Zm2.954-10a.359.359,0,0,0-.342.247l-2.954,8.981a.36.36,0,1,0,.684.225L69.1,89.452a.36.36,0,0,0-.342-.473Z" transform="translate(-54.196 -73.729)" fill="#173697"/>
        <path id="パス_46659" data-name="パス 46659" d="M52.437,91.243h-.862a.51.51,0,0,1,0-1.02h.862a.51.51,0,1,1,0,1.02" transform="translate(-42.384 -74.886)" fill="#173697"/>
        <path id="パス_46659_-_アウトライン" data-name="パス 46659 - アウトライン" d="M52.437,91.393h-.862a.66.66,0,0,1,0-1.32h.862a.66.66,0,0,1,0,1.32Zm-.862-1.02a.36.36,0,0,0,0,.72h.862a.36.36,0,0,0,0-.72Z" transform="translate(-42.384 -74.886)" fill="#173697"/>
      </g>
    </g>
  </g>
</svg>
