<svg xmlns="http://www.w3.org/2000/svg" xmlns:xlink="http://www.w3.org/1999/xlink" width="25" height="30" viewBox="0 0 25 30">
  <defs>
    <clipPath id="clip-path">
      <rect id="長方形_25075" data-name="長方形 25075" width="25" height="30" transform="translate(-23884 -13308)" fill="none" stroke="#707070" stroke-width="1"/>
    </clipPath>
  </defs>
  <g id="マスクグループ_17553" data-name="マスクグループ 17553" transform="translate(23884 13308)" clip-path="url(#clip-path)">
    <g id="グループ_18183" data-name="グループ 18183" transform="translate(-23888.963 -13309.404)">
      <g id="グループ_18185" data-name="グループ 18185" transform="translate(7.076 7.076)">
        <path id="パス_46675" data-name="パス 46675" d="M15.584,6.426a9.966,9.966,0,0,1,6.724,2.215,7.257,7.257,0,0,1,2.434,5.438c0,.032,0,.064,0,.1a7.241,7.241,0,0,1-1.927,5.037,8.814,8.814,0,0,1-5.236,2.567L16.13,23.414a1.017,1.017,0,0,1-1.762-.5l-.18-1.056a9.179,9.179,0,0,1-5.6-2.4,7.3,7.3,0,0,1-2.163-5.279,7.266,7.266,0,0,1,2.4-5.505A9.939,9.939,0,0,1,15.584,6.426ZM15.55,22.109l1.221-1.374a.65.65,0,0,1,.4-.211c3.869-.5,6.273-2.937,6.273-6.349,0-.018,0-.037,0-.055s0-.013,0-.019a5.9,5.9,0,0,0-2-4.486,8.7,8.7,0,0,0-5.863-1.89A8.676,8.676,0,0,0,9.695,9.64a5.9,5.9,0,0,0-1.969,4.536A5.93,5.93,0,0,0,9.5,18.525,8.128,8.128,0,0,0,14.784,20.6a.65.65,0,0,1,.6.54Z" transform="translate(-7.076 -7.076)" fill="#173697"/>
        <path id="パス_46677" data-name="パス 46677" d="M130.442,86.973a.65.65,0,0,1,.1.008,6.309,6.309,0,0,1,3.777,1.927,5.491,5.491,0,0,1-.243,7.44,6.579,6.579,0,0,1-3.9,1.724l-.1.6a.908.908,0,0,1-1.572.451l-.975-1.1a5.91,5.91,0,0,1-4.528-3,.65.65,0,0,1,.093-.733l.027-.03a.65.65,0,0,1,.4-.21c3.869-.5,6.273-2.937,6.273-6.349,0-.019,0-.038,0-.057a.65.65,0,0,1,.65-.673Zm-1.511,10.672.048-.284a.65.65,0,0,1,.6-.54,5.522,5.522,0,0,0,3.59-1.4,4.192,4.192,0,0,0,.183-5.643,4.72,4.72,0,0,0-2.291-1.353,7.151,7.151,0,0,1-1.9,4.319,8.537,8.537,0,0,1-4.506,2.433,5.1,5.1,0,0,0,3.28,1.6.65.65,0,0,1,.4.213Z" transform="translate(-113.425 -80.604)" fill="#173697"/>
        <path id="線_3055" data-name="線 3055" d="M5.184.65H0A.65.65,0,0,1-.65,0,.65.65,0,0,1,0-.65H5.184a.65.65,0,0,1,.65.65A.65.65,0,0,1,5.184.65Z" transform="translate(5.917 5.804)" fill="#173697"/>
        <path id="線_3056" data-name="線 3056" d="M5.184.65H0A.65.65,0,0,1-.65,0,.65.65,0,0,1,0-.65H5.184a.65.65,0,0,1,.65.65A.65.65,0,0,1,5.184.65Z" transform="translate(5.917 9.078)" fill="#173697"/>
      </g>
    </g>
  </g>
</svg>
