<svg xmlns="http://www.w3.org/2000/svg" xmlns:xlink="http://www.w3.org/1999/xlink" width="30" height="30" viewBox="0 0 30 30">
  <defs>
    <clipPath id="clip-path">
      <rect id="長方形_25150" data-name="長方形 25150" width="30" height="30" transform="translate(652 666)" fill="none" stroke="#707070" stroke-width="1"/>
    </clipPath>
  </defs>
  <g id="マスクグループ_20201" data-name="マスクグループ 20201" transform="translate(-652 -666)" clip-path="url(#clip-path)">
    <g id="グループ_20183" data-name="グループ 20183" transform="translate(655.922 668.957)">
      <g id="グループ_20180" data-name="グループ 20180" transform="translate(0 0.397)">
        <path id="パス_46382" data-name="パス 46382" d="M1.544,13.163H21.3a1.419,1.419,0,0,1,1.544,1.228V26.338A1.421,1.421,0,0,1,21.3,27.565H1.544A1.42,1.42,0,0,1,0,26.338V14.391a1.417,1.417,0,0,1,1.544-1.228" transform="translate(0 -5.746)" fill="#8ab0f2"/>
        <circle id="楕円形_2289" data-name="楕円形 2289" cx="1.109" cy="1.109" r="1.109" transform="translate(10.314 0)" fill="#abc8d7" stroke="#abc8d7" stroke-linecap="round" stroke-linejoin="round" stroke-width="1.141"/>
        <line id="線_2905" data-name="線 2905" x2="5.52" y2="5.52" transform="translate(12.43 1.748)" fill="none" stroke="#abc8d7" stroke-linecap="round" stroke-linejoin="round" stroke-width="1.141"/>
        <line id="線_2906" data-name="線 2906" x1="5.52" y2="5.52" transform="translate(4.896 1.748)" fill="none" stroke="#abc8d7" stroke-linecap="round" stroke-linejoin="round" stroke-width="1.141"/>
        <line id="線_2907" data-name="線 2907" y2="3.921" transform="translate(6.236 9.828)" fill="none" stroke="#2c53a1" stroke-linecap="round" stroke-linejoin="round" stroke-width="1"/>
        <line id="線_2908" data-name="線 2908" x2="2.144" transform="translate(6.236 9.828)" fill="none" stroke="#2c53a1" stroke-linecap="round" stroke-linejoin="round" stroke-width="1"/>
        <line id="線_2909" data-name="線 2909" x2="1.69" transform="translate(6.419 11.788)" fill="none" stroke="#2c53a1" stroke-linecap="round" stroke-linejoin="round" stroke-width="1"/>
        <path id="パス_46383" data-name="パス 46383" d="M17.611,17.256h.543a.833.833,0,0,1,.907.72v2.48a.833.833,0,0,1-.907.72h-.543a.833.833,0,0,1-.907-.72v-2.48A.833.833,0,0,1,17.611,17.256Z" transform="translate(-6.865 -7.428)" fill="#8ab0f2" stroke="#2c53a1" stroke-linecap="round" stroke-linejoin="round" stroke-width="1"/>
        <line id="線_2910" data-name="線 2910" y2="3.921" transform="translate(14.144 9.828)" fill="none" stroke="#2c53a1" stroke-linecap="round" stroke-linejoin="round" stroke-width="1"/>
        <line id="線_2911" data-name="線 2911" x2="1.328" y2="1.745" transform="translate(15.442 12.214)" fill="none" stroke="#2c53a1" stroke-linecap="round" stroke-linejoin="round" stroke-width="1"/>
        <path id="パス_46384" data-name="パス 46384" d="M24.013,17.256h1.61a.785.785,0,0,1,.855.68v.793a.785.785,0,0,1-.855.68h-1.61" transform="translate(-9.869 -7.428)" fill="#8ab0f2" stroke="#2c53a1" stroke-linecap="round" stroke-linejoin="round" stroke-width="1"/>
        <line id="線_2912" data-name="線 2912" y2="3.871" transform="translate(3.645 15.618)" fill="none" stroke="#2c53a1" stroke-linecap="round" stroke-linejoin="round" stroke-width="1"/>
        <line id="線_2913" data-name="線 2913" x2="1.352" y2="1.723" transform="translate(4.963 17.795)" fill="none" stroke="#2c53a1" stroke-linecap="round" stroke-linejoin="round" stroke-width="1"/>
        <path id="パス_46385" data-name="パス 46385" d="M6.458,27.05H8.1a.793.793,0,0,1,.871.671V28.5a.793.793,0,0,1-.871.671H6.458" transform="translate(-2.654 -11.453)" fill="#8ab0f2" stroke="#2c53a1" stroke-linecap="round" stroke-linejoin="round" stroke-width="1"/>
        <line id="線_2914" data-name="線 2914" y2="3.871" transform="translate(8.143 15.597)" fill="none" stroke="#2c53a1" stroke-linecap="round" stroke-linejoin="round" stroke-width="1"/>
        <line id="線_2915" data-name="線 2915" x2="2.184" transform="translate(8.143 15.597)" fill="none" stroke="#2c53a1" stroke-linecap="round" stroke-linejoin="round" stroke-width="1"/>
        <line id="線_2916" data-name="線 2916" x2="1.722" transform="translate(8.143 17.533)" fill="none" stroke="#2c53a1" stroke-linecap="round" stroke-linejoin="round" stroke-width="1"/>
        <line id="線_2917" data-name="線 2917" x2="2.184" transform="translate(8.143 19.468)" fill="none" stroke="#2c53a1" stroke-linecap="round" stroke-linejoin="round" stroke-width="1"/>
        <line id="線_2918" data-name="線 2918" y2="3.871" transform="translate(12.215 15.597)" fill="none" stroke="#2c53a1" stroke-linecap="round" stroke-linejoin="round" stroke-width="1"/>
        <line id="線_2919" data-name="線 2919" y2="3.871" transform="translate(14.725 15.597)" fill="none" stroke="#2c53a1" stroke-linecap="round" stroke-linejoin="round" stroke-width="1"/>
        <line id="線_2920" data-name="線 2920" y2="3.871" transform="translate(17.688 15.597)" fill="none" stroke="#2c53a1" stroke-linecap="round" stroke-linejoin="round" stroke-width="1"/>
        <line id="線_2921" data-name="線 2921" x2="2.403" y2="3.77" transform="translate(12.322 15.698)" fill="none" stroke="#2c53a1" stroke-linecap="round" stroke-linejoin="round" stroke-width="1"/>
        <line id="線_2922" data-name="線 2922" x2="2.184" transform="translate(16.596 15.597)" fill="none" stroke="#2c53a1" stroke-linecap="round" stroke-linejoin="round" stroke-width="1"/>
      </g>
    </g>
  </g>
</svg>
