<svg xmlns="http://www.w3.org/2000/svg" xmlns:xlink="http://www.w3.org/1999/xlink" width="25" height="30" viewBox="0 0 25 30">
  <defs>
    <clipPath id="clip-path">
      <rect id="長方形_25074" data-name="長方形 25074" width="25" height="30" transform="translate(-24115 -13310)" fill="none" stroke="#707070" stroke-width="1"/>
    </clipPath>
  </defs>
  <g id="マスクグループ_17552" data-name="マスクグループ 17552" transform="translate(24115 13310)" clip-path="url(#clip-path)">
    <g id="グループ_18177" data-name="グループ 18177" transform="translate(-24114.75 -13307.055)">
      <g id="グループ_18179" data-name="グループ 18179" transform="translate(-0.25 -0.25)">
        <path id="パス_46660" data-name="パス 46660" d="M58.422,54.229h-.075c-3.3,0-4.646,1.675-5.2,3.081-1.012,2.57-.079,5.982,1.043,7.028,2.051,1.911,1.663,2.783,1.625,2.856a.278.278,0,0,0-.057.256v2.79a.3.3,0,0,0,.025.12,2.965,2.965,0,0,0,5.2,0,.3.3,0,0,0,.025-.121V67.371s0-.005,0-.008a.3.3,0,0,0,0-.043s0-.008,0-.012a.3.3,0,0,0-.016-.05l-.007-.014a.288.288,0,0,0-.018-.033l-.01-.015a.312.312,0,0,0-.023-.028l-.012-.013,0,0a.528.528,0,0,1-.082-.326c0-.355.235-1.149,1.738-2.48,1.123-.995,2.075-4.352,1.089-6.951-.547-1.443-1.9-3.162-5.238-3.162m1.984,14.744H56.363v-1.3h4.043ZM58.385,71.3a2.214,2.214,0,0,1-2.022-1.129v-.592h4.043v.591a2.231,2.231,0,0,1-2.022,1.13m3.785-7.409c-1.279,1.133-1.933,2.118-1.942,2.926a1.341,1.341,0,0,0,.02.253H56.47c.059-.559-.178-1.6-1.868-3.174-.873-.813-1.829-3.985-.892-6.363.7-1.79,2.264-2.7,4.637-2.7h.075c2.369,0,3.984.958,4.672,2.772.911,2.4-.055,5.513-.925,6.283" transform="translate(-45.878 -47.544)" fill="#173697"/>
        <path id="パス_46660_-_アウトライン" data-name="パス 46660 - アウトライン" d="M58.385,72.154a3.05,3.05,0,0,1-2.831-1.694.547.547,0,0,1-.046-.22V67.477a.525.525,0,0,1,.09-.412c.034-.106.2-.888-1.578-2.544a5.978,5.978,0,0,1-1.4-3.079,7.775,7.775,0,0,1,.292-4.224c.582-1.478,2-3.239,5.432-3.239h.075c3.481,0,4.9,1.807,5.472,3.324a7.8,7.8,0,0,1,.258,4.214,5.744,5.744,0,0,1-1.415,3.012c-1.484,1.314-1.651,2.044-1.654,2.3a.374.374,0,0,0,.03.169.58.58,0,0,1,.043.052l.019.028a.545.545,0,0,1,.034.063c0,.007.008.016.012.025a.555.555,0,0,1,.028.091v.006c0,.007,0,.014,0,.022a.517.517,0,0,1,.007.061.267.267,0,0,1,0,.029V70.24a.548.548,0,0,1-.046.221A3.055,3.055,0,0,1,58.385,72.154Zm-.039-17.675c-1.74,0-4.016.507-4.966,2.922a7.272,7.272,0,0,0-.266,3.948,5.572,5.572,0,0,0,1.247,2.806c2.129,1.983,1.77,2.976,1.676,3.155l-.013.025L56,67.356c0,.005-.01.011,0,.031l.008.031V70.24a.051.051,0,0,0,0,.021,2.717,2.717,0,0,0,4.745,0,.052.052,0,0,0,0-.021V67.384s0-.007,0-.01a.079.079,0,0,0,0-.012v-.006h0l0-.005,0-.006,0,0,0,0-.018-.019.009.009h0a.734.734,0,0,1-.156-.507c.006-.484.327-1.34,1.822-2.664a5.336,5.336,0,0,0,1.256-2.735,7.3,7.3,0,0,0-.235-3.94c-.941-2.48-3.24-3-5-3h-.076Zm.039,17.07a2.484,2.484,0,0,1-2.243-1.262l-.029-.055v-.9h4.543v.9l-.03.055A2.5,2.5,0,0,1,58.385,71.549Zm-1.772-1.443a2.134,2.134,0,0,0,3.543,0v-.276H56.613Zm4.043-.882H56.113v-1.8h4.543Zm-4.043-.5h3.543v-.8H56.613Zm3.934-1.4H56.192l.029-.276c.047-.441-.123-1.412-1.789-2.965a5.507,5.507,0,0,1-1.2-2.73,7.148,7.148,0,0,1,.245-3.908c.746-1.895,2.384-2.855,4.869-2.855h.075c2.483,0,4.179,1.014,4.907,2.933a7.175,7.175,0,0,1,.217,3.892,5.271,5.271,0,0,1-1.209,2.667c-1.207,1.069-1.849,2.017-1.858,2.742a1.1,1.1,0,0,0,.016.206Zm-3.821-.5h3.252v-.005c.01-.882.692-1.929,2.026-3.111.8-.712,1.717-3.738.857-6.008-.648-1.708-2.182-2.61-4.438-2.61h-.076c-2.258,0-3.74.854-4.4,2.539-.884,2.247.022,5.336.83,6.089C56.282,65.118,56.691,66.146,56.726,66.818Z" transform="translate(-45.878 -47.544)" fill="#173697"/>
        <path id="パス_46661" data-name="パス 46661" d="M93.753,4.308h0a.3.3,0,0,0,.3-.3L94.038.3a.3.3,0,1,0-.605,0l.017,3.7a.3.3,0,0,0,.3.3" transform="translate(-81.229 0.25)" fill="#173697"/>
        <path id="パス_46661_-_アウトライン" data-name="パス 46661 - アウトライン" d="M93.755,4.558h0a.554.554,0,0,1-.553-.55L93.183.3a.553.553,0,0,1,.55-.555h.006a.552.552,0,0,1,.55.55L94.305,4A.553.553,0,0,1,93.755,4.558ZM93.738.25A.053.053,0,0,0,93.683.3l.017,3.7a.053.053,0,0,0,.053.052v0a.053.053,0,0,0,.052-.053L93.788.3A.055.055,0,0,0,93.738.25Z" transform="translate(-81.229 0.25)" fill="#173697"/>
        <path id="パス_46662" data-name="パス 46662" d="M160.927,93.007H156.96a.3.3,0,1,0,0,.605h3.968a.3.3,0,0,0,0-.605" transform="translate(-136.48 -80.857)" fill="#173697"/>
        <path id="パス_46662_-_アウトライン" data-name="パス 46662 - アウトライン" d="M160.927,93.862H156.96a.553.553,0,1,1,0-1.105h3.968a.553.553,0,0,1,0,1.105Zm-3.968-.605a.053.053,0,1,0,0,.105h3.968a.053.053,0,0,0,0-.105Z" transform="translate(-136.48 -80.857)" fill="#173697"/>
        <path id="パス_46663" data-name="パス 46663" d="M4.32,93.007H.3a.3.3,0,1,0,0,.605H4.32a.3.3,0,1,0,0-.605" transform="translate(0.25 -80.857)" fill="#173697"/>
        <path id="パス_46663_-_アウトライン" data-name="パス 46663 - アウトライン" d="M4.32,93.862H.3a.553.553,0,1,1,0-1.105H4.32a.553.553,0,1,1,0,1.105ZM.3,93.257a.053.053,0,1,0,0,.105H4.32a.053.053,0,1,0,0-.105Z" transform="translate(0.25 -80.857)" fill="#173697"/>
        <path id="パス_46664" data-name="パス 46664" d="M23.228,29.065a.3.3,0,0,0-.433.423l2.823,2.888a.3.3,0,1,0,.433-.423Z" transform="translate(-19.466 -25.036)" fill="#173697"/>
        <path id="パス_46664_-_アウトライン" data-name="パス 46664 - アウトライン" d="M23.012,28.724h0a.548.548,0,0,1,.4.166l2.823,2.888a.553.553,0,0,1-.79.773l-2.823-2.888a.553.553,0,0,1,.4-.939Zm2.823,3.493a.052.052,0,0,0,.037-.015.053.053,0,0,0,0-.074L23.05,29.24a.053.053,0,0,0-.075.074L25.8,32.2A.052.052,0,0,0,25.835,32.218Z" transform="translate(-19.466 -25.032)" fill="#173697"/>
        <path id="パス_46665" data-name="パス 46665" d="M146.215,29.055a.3.3,0,0,0-.428.014l-2.7,2.888a.3.3,0,1,0,.442.413l2.7-2.888a.3.3,0,0,0-.014-.428" transform="translate(-124.628 -25.036)" fill="#173697"/>
        <path id="パス_46665_-_アウトライン" data-name="パス 46665 - アウトライン" d="M143.308,32.717a.553.553,0,0,1-.4-.93l2.7-2.888a.553.553,0,0,1,.956.359.549.549,0,0,1-.149.4l-2.7,2.888A.554.554,0,0,1,143.308,32.717Zm2.7-3.493a.051.051,0,0,0-.038.017l-2.7,2.888a.052.052,0,1,0,.077.072l2.7-2.888a.053.053,0,0,0-.038-.089Z" transform="translate(-124.628 -25.032)" fill="#173697"/>
        <path id="パス_46666" data-name="パス 46666" d="M80.113,84.394a.3.3,0,0,0-.418.034L76.762,87.87l-1.633-1.381a.3.3,0,0,0-.383.453L76.6,88.513h0l.016.011c.009.007.018.014.028.02l.021.01.026.012a.24.24,0,0,0,.03.008l.019.005a.313.313,0,0,0,.051,0,.3.3,0,0,0,.063-.006l.014,0a.311.311,0,0,0,.046-.015l.016-.009a.284.284,0,0,0,.039-.023c.006,0,.012-.011.018-.017a.282.282,0,0,0,.03-.029h0l3.124-3.667a.3.3,0,0,0-.033-.418" transform="translate(-64.914 -73.342)" fill="#173697"/>
        <path id="パス_46666_-_アウトライン" data-name="パス 46666 - アウトライン" d="M76.8,88.834a.565.565,0,0,1-.091-.008l-.04-.01a.423.423,0,0,1-.053-.015.427.427,0,0,1-.045-.02.385.385,0,0,1-.044-.022.52.52,0,0,1-.044-.03l0,0-.027-.02-.015-.013-1.848-1.563a.547.547,0,1,1,.706-.834l1.443,1.22L79.5,84.265a.547.547,0,1,1,.832.709l-3.2,3.755h-.02a.5.5,0,0,1-.061.037l-.027.015-.012.006a.523.523,0,0,1-.073.025l-.028.008-.008,0A.555.555,0,0,1,76.8,88.834Zm0-.5H76.8l.013,0,.008,0h0l0,0,.017-.015,3.116-3.659a.047.047,0,0,0-.005-.066.045.045,0,0,0-.03-.011.046.046,0,0,0-.035.016l-3.094,3.633L74.967,86.68a.045.045,0,0,0-.03-.011.047.047,0,0,0-.03.082l1.851,1.566.011.008,0,0,.005,0,.013,0Z" transform="translate(-64.914 -73.342)" fill="#173697"/>
      </g>
    </g>
  </g>
</svg>
