<svg xmlns="http://www.w3.org/2000/svg" xmlns:xlink="http://www.w3.org/1999/xlink" width="25" height="30" viewBox="0 0 25 30">
  <defs>
    <clipPath id="clip-path">
      <rect id="長方形_25071" data-name="長方形 25071" width="25" height="30" transform="translate(-24350 -14615)" fill="none" stroke="#707070" stroke-width="1"/>
    </clipPath>
  </defs>
  <g id="マスクグループ_17549" data-name="マスクグループ 17549" transform="translate(24350 14615)" clip-path="url(#clip-path)">
    <g id="グループ_18171" data-name="グループ 18171" transform="translate(-24346.846 -14611.855)">
      <g id="グループ_18173" data-name="グループ 18173" transform="translate(0 0)">
        <path id="パス_46647" data-name="パス 46647" d="M58.414,37.828q-.182,0-.372-.018a.441.441,0,0,1,.086-.878c2.481.244,3.724-2.927,3.736-2.959a.442.442,0,0,1,.355-.28,1.7,1.7,0,0,0,1.307-1.3,1.028,1.028,0,0,0-.03-.794.587.587,0,0,0-.368-.217.441.441,0,0,1-.4-.38,7.71,7.71,0,0,0-.234-1.123.441.441,0,0,1,.847-.246,8.433,8.433,0,0,1,.217.959,1.394,1.394,0,0,1,.658.5,1.779,1.779,0,0,1,.157,1.526A2.583,2.583,0,0,1,62.6,34.507c-.35.781-1.68,3.32-4.181,3.32" transform="translate(-49.172 -25.008)" fill="#173697"/>
        <path id="パス_46647_-_アウトライン" data-name="パス 46647 - アウトライン" d="M58.414,38.028c-.128,0-.26-.007-.391-.019a.641.641,0,1,1,.126-1.276c.083.008.168.012.25.012,2.152,0,3.268-2.816,3.279-2.845a.64.64,0,0,1,.516-.406,1.5,1.5,0,0,0,1.14-1.151.841.841,0,0,0,0-.628.383.383,0,0,0-.229-.133.638.638,0,0,1-.568-.552,7.51,7.51,0,0,0-.227-1.094.642.642,0,0,1,.616-.82.644.644,0,0,1,.615.462,8.562,8.562,0,0,1,.2.873,1.578,1.578,0,0,1,.644.533,1.968,1.968,0,0,1,.185,1.692,2.8,2.8,0,0,1-1.831,1.995C62.328,35.56,60.951,38.028,58.414,38.028Zm-.33-.9a.243.243,0,0,0-.239.218.241.241,0,0,0,.216.263c.119.012.237.017.352.017,2.379,0,3.662-2.451,4-3.2l.038-.084.088-.026a2.373,2.373,0,0,0,1.646-1.743,1.592,1.592,0,0,0-.128-1.36,1.181,1.181,0,0,0-.565-.432l-.107-.041-.019-.113a8.247,8.247,0,0,0-.211-.936.242.242,0,0,0-.231-.174.241.241,0,0,0-.232.308,7.909,7.909,0,0,1,.24,1.152.24.24,0,0,0,.216.208h0a.78.78,0,0,1,.514.3,1.148,1.148,0,0,1,.059.96,1.908,1.908,0,0,1-1.47,1.443.243.243,0,0,0-.2.154,6.855,6.855,0,0,1-.9,1.549,3.43,3.43,0,0,1-3.039,1.537Z" transform="translate(-49.172 -25.008)" fill="#173697"/>
        <path id="パス_46648" data-name="パス 46648" d="M10.163,87.311H.441A.441.441,0,0,1,0,86.87a8.722,8.722,0,0,1,4.449-7.746c2.56-1.643,1.869-3.2,1.839-3.264a.443.443,0,0,1,.206-.587.438.438,0,0,1,.585.2c.047.093,1.1,2.306-2.153,4.4A7.8,7.8,0,0,0,.891,86.429h9.271a.441.441,0,0,1,0,.882" transform="translate(0 -64.171)" fill="#173697"/>
        <path id="パス_46648_-_アウトライン" data-name="パス 46648 - アウトライン" d="M10.163,87.511H.441A.642.642,0,0,1-.2,86.87a8.909,8.909,0,0,1,4.541-7.915c2.415-1.55,1.793-2.951,1.766-3.01a.645.645,0,0,1,.3-.852.639.639,0,0,1,.852.287c.05.1,1.181,2.469-2.224,4.654A7.608,7.608,0,0,0,1.1,86.229h9.06a.641.641,0,0,1,0,1.282ZM6.687,75.429a.242.242,0,0,0-.218.346c.034.072.8,1.78-1.912,3.517A8.535,8.535,0,0,0,.2,86.87a.241.241,0,0,0,.241.241h9.722a.241.241,0,0,0,0-.482H.683l.009-.209A7.971,7.971,0,0,1,4.818,79.7C7.924,77.705,6.943,75.647,6.9,75.56A.237.237,0,0,0,6.687,75.429Z" transform="translate(0 -64.171)" fill="#173697"/>
        <path id="パス_46649" data-name="パス 46649" d="M62.649,87.3H52.927a.441.441,0,0,1,0-.882H62.2a7.8,7.8,0,0,0-4.034-6.563c-3.245-2.082-2.291-4.288-2.249-4.381a.441.441,0,0,1,.805.36c-.032.076-.643,1.634,1.92,3.278A8.722,8.722,0,0,1,63.09,86.86a.441.441,0,0,1-.441.441" transform="translate(-44.771 -64.161)" fill="#173697"/>
        <path id="パス_46649_-_アウトライン" data-name="パス 46649 - アウトライン" d="M62.649,87.5H52.927a.641.641,0,0,1,0-1.282h9.06a7.609,7.609,0,0,0-3.931-6.195c-3.389-2.174-2.368-4.533-2.323-4.632a.643.643,0,0,1,.584-.376.636.636,0,0,1,.264.057.643.643,0,0,1,.322.842c-.024.056-.583,1.471,1.845,3.029A8.909,8.909,0,0,1,63.29,86.86.642.642,0,0,1,62.649,87.5Zm-9.722-.882a.241.241,0,0,0,0,.482h9.722a.241.241,0,0,0,.241-.241,8.535,8.535,0,0,0-4.357-7.578,4.319,4.319,0,0,1-2.018-2.343,1.9,1.9,0,0,1,.022-1.181.242.242,0,0,0-.119-.32.239.239,0,0,0-.1-.022.242.242,0,0,0-.22.141c-.039.086-.926,2.14,2.175,4.13A7.972,7.972,0,0,1,62.4,86.41l.009.209Z" transform="translate(-44.771 -64.161)" fill="#173697"/>
        <path id="パス_46650" data-name="パス 46650" d="M26.041,12.82c-2.5,0-3.831-2.539-4.181-3.32a2.583,2.583,0,0,1-1.782-1.883,1.779,1.779,0,0,1,.157-1.526,1.392,1.392,0,0,1,.653-.5,5.234,5.234,0,0,1,1.448-3.367C23.527.9,26.349-.135,27.454.348A3.584,3.584,0,0,0,29.543.034.441.441,0,0,1,30.125.6,6.617,6.617,0,0,0,29.8,1.641a1.747,1.747,0,0,0,.948-.309.441.441,0,0,1,.68.5c-.2.571-.315.917-.379,1.126l.9.336a.441.441,0,0,1,.2.681c-1.8,2.353-4.337,2.032-6.189,1.8-.422-.054-.821-.1-1.181-.122a1.2,1.2,0,0,0-.985.31,1.888,1.888,0,0,0-.367,1.281.441.441,0,1,1-.878.084,2.755,2.755,0,0,1,.608-1.975,2.052,2.052,0,0,1,1.668-.581c.393.02.807.073,1.246.128,1.664.21,3.531.447,4.979-1l-.571-.214a.427.427,0,0,1-.144-.046c-.335-.179-.233-.538-.166-.776.029-.1.068-.23.117-.382A1.919,1.919,0,0,1,29.2,2.409a.442.442,0,0,1-.2-.148c-.112-.15-.186-.409.014-1.123a3.155,3.155,0,0,1-1.911.019C26.526.9,24.078,1.6,22.992,2.811a4.509,4.509,0,0,0-1.243,2.994L21.723,6a.441.441,0,0,1-.4.38.591.591,0,0,0-.372.222,1.038,1.038,0,0,0-.026.789,1.7,1.7,0,0,0,1.311,1.3.447.447,0,0,1,.351.28c.012.031,1.257,3.2,3.735,2.959a.441.441,0,0,1,.086.878q-.19.019-.372.018" transform="translate(-17.045 0)" fill="#173697"/>
        <path id="パス_46650_-_アウトライン" data-name="パス 46650 - アウトライン" d="M26.041,13.02h0c-2.536,0-3.913-2.468-4.326-3.357a2.8,2.8,0,0,1-1.83-1.995,1.967,1.967,0,0,1,.185-1.692,1.576,1.576,0,0,1,.634-.528,5.348,5.348,0,0,1,1.483-3.361A7.257,7.257,0,0,1,26.752.027a1.963,1.963,0,0,1,.782.138.918.918,0,0,0,.351.055,4.782,4.782,0,0,0,1.581-.37.641.641,0,0,1,.845.821c-.125.324-.2.568-.254.747a1.726,1.726,0,0,0,.57-.248.641.641,0,0,1,.986.728c-.135.383-.242.7-.32.939l.718.269a.641.641,0,0,1,.284.99,5.088,5.088,0,0,1-4.378,2.037,15.8,15.8,0,0,1-1.994-.162c-.418-.053-.812-.1-1.168-.121a1.018,1.018,0,0,0-.831.248,1.7,1.7,0,0,0-.312,1.126.641.641,0,0,1-1.276.119A2.973,2.973,0,0,1,23,5.212a2.246,2.246,0,0,1,1.823-.642c.4.021.815.073,1.255.129h.006a14.9,14.9,0,0,0,1.855.156,4,4,0,0,0,2.725-.885l-.249-.093a.623.623,0,0,1-.187-.064c-.477-.255-.333-.763-.265-1.007l.025-.087a2.041,2.041,0,0,1-.863-.123.641.641,0,0,1-.288-.215,1.173,1.173,0,0,1-.1-.975,2.929,2.929,0,0,1-1.72-.066.657.657,0,0,0-.252-.034,6.091,6.091,0,0,0-3.628,1.64,4.3,4.3,0,0,0-1.194,2.886l-.025.192a.638.638,0,0,1-.381.5v.019l-.121.019a.652.652,0,0,1-.065.01.389.389,0,0,0-.234.136.85.85,0,0,0,0,.625,1.5,1.5,0,0,0,1.148,1.152.645.645,0,0,1,.508.406c.011.027,1.131,2.843,3.278,2.843.083,0,.167,0,.25-.012.021,0,.042,0,.063,0A.641.641,0,0,1,26.433,13c-.132.013-.263.019-.392.019ZM26.752.427a6.9,6.9,0,0,0-4.267,1.928,5.042,5.042,0,0,0-1.4,3.259l-.016.118-.111.043a1.2,1.2,0,0,0-.56.43,1.592,1.592,0,0,0-.128,1.36,2.373,2.373,0,0,0,1.646,1.743l.088.026.038.084c.337.751,1.619,3.2,4,3.2h0c.115,0,.234-.006.353-.017a.241.241,0,0,0,.216-.263.242.242,0,0,0-.263-.217c-.1.01-.194.014-.29.014a3.528,3.528,0,0,1-2.748-1.552,6.9,6.9,0,0,1-.9-1.548.248.248,0,0,0-.194-.154,1.912,1.912,0,0,1-1.475-1.444,1.158,1.158,0,0,1,.053-.952.714.714,0,0,1,.326-.256l0-.035.2-.019a.24.24,0,0,0,.216-.208l.025-.191a4.72,4.72,0,0,1,1.293-3.1A6.474,6.474,0,0,1,26.768.905a1.035,1.035,0,0,1,.413.068A2.9,2.9,0,0,0,28.962.944L29.3.857l-.094.334c-.206.737-.086.9-.047.949a.242.242,0,0,0,.108.081,1.722,1.722,0,0,0,.966.06l.337-.07-.106.327c-.048.148-.087.274-.115.375-.086.306-.1.457.068.545a.226.226,0,0,0,.076.024l.022,0,.883.331-.22.22a4.288,4.288,0,0,1-3.241,1.217,15.2,15.2,0,0,1-1.9-.159h-.006c-.433-.055-.842-.106-1.226-.126a1.863,1.863,0,0,0-1.513.52,2.546,2.546,0,0,0-.553,1.818.241.241,0,0,0,.48-.046,2.087,2.087,0,0,1,.422-1.439,1.34,1.34,0,0,1,1.012-.375q.063,0,.128,0c.371.019.79.072,1.2.124a15.491,15.491,0,0,0,1.945.159,4.716,4.716,0,0,0,4.06-1.88.241.241,0,0,0-.107-.372l-1.071-.4.055-.18c.08-.262.208-.643.382-1.134a.24.24,0,0,0-.085-.274.244.244,0,0,0-.287,0,1.95,1.95,0,0,1-1.075.349l-.234-.009L29.6,1.6A6.966,6.966,0,0,1,29.938.528a.24.24,0,0,0-.057-.259.243.243,0,0,0-.261-.05,5.135,5.135,0,0,1-1.735.4,1.288,1.288,0,0,1-.512-.088A1.575,1.575,0,0,0,26.752.427Z" transform="translate(-17.045 0)" fill="#173697"/>
        <path id="パス_46651" data-name="パス 46651" d="M43.163,95.309h-.034a.441.441,0,0,1-.315-.132l-2.856-2.916a.441.441,0,0,1,.63-.617l2.558,2.612L45.7,91.644a.441.441,0,0,1,.63.617l-2.855,2.916a.441.441,0,0,1-.315.132" transform="translate(-33.977 -78.061)" fill="#173697"/>
        <path id="パス_46651_-_アウトライン" data-name="パス 46651 - アウトライン" d="M43.163,95.509h-.034a.645.645,0,0,1-.458-.192L39.815,92.4a.641.641,0,0,1,.916-.9l2.415,2.466L45.56,91.5a.641.641,0,0,1,.916.9l-2.856,2.916A.645.645,0,0,1,43.163,95.509Zm-2.89-3.8a.241.241,0,0,0-.172.41l2.856,2.916a.243.243,0,0,0,.172.072h.034a.24.24,0,0,0,.172-.072l2.855-2.915a.241.241,0,0,0-.345-.337l-2.7,2.757-2.7-2.758A.239.239,0,0,0,40.273,91.712Z" transform="translate(-33.977 -78.061)" fill="#173697"/>
      </g>
    </g>
  </g>
</svg>
