<svg xmlns="http://www.w3.org/2000/svg" width="760.72" height="422" viewBox="0 0 760.72 422">
  <g id="グループ_16337" data-name="グループ 16337" transform="translate(-314.14 -142)">
    <rect id="長方形_24265" data-name="長方形 24265" width="546" height="16" transform="translate(424 521)" fill="#333" opacity="0.4"/>
    <rect id="長方形_24263" data-name="長方形 24263" width="571" height="99" transform="translate(409 229)" fill="#333" opacity="0.4"/>
    <rect id="長方形_24264" data-name="長方形 24264" width="571" height="99" transform="translate(409 366)" fill="#333" opacity="0.4"/>
    <text id="The_asset_formation_of_so_many_men_so_many_minds" data-name="The asset formation of so many men, so many minds" transform="translate(697 534)" fill="#fff" font-size="14" font-family="Lato-Regular, Lato" letter-spacing="0.209em"><tspan x="-271.579" y="0">THE ASSET FORMATION OF SO MANY MEN, SO MANY MINDS</tspan></text>
    <path id="パス_46347" data-name="パス 46347" d="M-200.5-47.2h-25.4V-79.3c2.8-.5,3.6-1.6,3.9-3.1l-12.5-1.3v36.5h-41.3l.9,2.9h40.4V7.8h1.6c3.4,0,7-2.2,7-3.2V-44.3h39.4a2.44,2.44,0,0,0,2.6-1.5c-3.9-3.8-10.7-9.1-10.7-9.1Zm78-35c-.1,30.9.3,63.3-38.5,88.6l1.3,1.6c36-18.4,43.2-43.7,45.1-68.3,2.9,30.4,11.5,53.7,37.9,68.1A9.328,9.328,0,0,1-68.4.5l.2-1.1c-34.5-15-43.5-40.2-45.7-77.5,2.6-.3,3.4-1.3,3.6-2.8Zm152,35H4.1V-79.3c2.8-.5,3.6-1.6,3.9-3.1L-4.5-83.7v36.5H-45.8l.9,2.9H-4.5V7.8h1.6c3.4,0,7-2.2,7-3.2V-44.3H43.5a2.44,2.44,0,0,0,2.6-1.5c-3.9-3.8-10.7-9.1-10.7-9.1Zm91.6-22.6c-2.1,4.6-5.2,10.9-8.1,14.9H90.8l-3.7-1.5a137.1,137.1,0,0,0,11-13.4Zm19.3,17.7v21.6H118.5V-52.1Zm-50.8,0h21.1v21.6H89.6Zm66,33h-1.3c-1.4,5.1-3.6,12.1-5,14.3-1.7,2.5-4.5,2.9-11.1,2.9H99.6c-6.6,0-10-.8-10-4.7v-21h50.8V-21h1.2c2.8,0,6.8-1.7,6.9-2.4V-50.5a7.544,7.544,0,0,0,4.3-2.2l-9.2-6.9-4.2,4.7H115.3c5.5-3.7,11.4-9.8,15.2-13.9,2.1-.1,3.3-.3,4-1.1L126-77.5l-4.9,4.8H100a74.388,74.388,0,0,0,4.5-7.5c2.6.2,3.5-.3,3.9-1.4L96.2-84.7C90.8-69.9,79.5-52.4,67.7-42.6l1.2,1.2A75.708,75.708,0,0,0,81.6-51V-6.8c0,9.7,6.2,12.4,18.6,12.4h38.7c17.8,0,21.9-2.4,21.9-6.3,0-1.8-1.2-2.2-5.1-3.3Zm72.1-37.5c0,4.8-1.7,11.1-3.8,16.2-3.9,8.7-13,23.9-19.3,23.9-4.1,0-8.2-7.3-8.2-16.4,0-8.6,3.7-16.3,9.9-22.6a37.57,37.57,0,0,1,18.5-10.1A16.338,16.338,0,0,1,227.7-56.6ZM226.2.8c32.9-1.9,44.2-18.7,44.2-35.9,0-20.8-16-35-37.3-35-11.1,0-21.4,3.5-29.5,10.7-9,7.8-13.8,18.7-13.8,28.5,0,12.6,7.1,23.7,14.2,23.7,10.8,0,22.3-19.1,26.5-31.3a50.555,50.555,0,0,0,3.2-16.6c0-4.1-2.4-8-5-11.2,1.3-.1,2.5-.2,3.7-.2,16.5,0,29.3,11.5,29.3,29.4,0,18-11.2,30.9-35.9,35.7ZM-269,65.5c4.9,3.3,11.1,9.2,13.3,14.2,8.6,4.3,12.9-12.2-12.4-15.1Zm26.7,19c-13.6,3.3-27.1,6.2-32.9,7.2l4.8,9.6a3.721,3.721,0,0,0,2.2-2.5c11.9-5.4,20.4-9.8,26.2-12.9Zm-7.3,49.1V125h41.3v8.6Zm41.3-31V111h-41.3v-8.4Zm0,19.5h-41.3v-8.3h41.3Zm1.3,18.3c2.6,0,6.6-1.7,6.7-2.4V103.8a6.728,6.728,0,0,0,3.8-1.8l-8.7-6.6-4,4.4H-249l-8.5-3.7V142h1.2c3.3,0,6.7-1.7,6.7-2.5v-3h41.3v3.9Zm-65.4,14.5c13.3-1.3,27.7-5.1,36.4-9.2,2.5.8,4.3.6,5.1-.4l-9.5-6.7c-6.7,5.1-20.3,11.6-32.5,14.8Zm47.7-12.7c12.5,3.1,21.7,7.5,26.9,11.3,8.6,5.9,22.6-10.5-26.6-12.7Zm26.5-66.7a72.323,72.323,0,0,1-5.1,8.9l1.3.8a74.817,74.817,0,0,0,12.4-8.4c1.9-.1,3.1-.3,3.9-1l-8-7.6-4.3,4.4h-32.5a56.019,56.019,0,0,0,4.5-5.7c2.4.2,3.1-.2,3.5-1.3l-11.7-2.9c-2.4,7.7-7.8,16.1-14.1,20.8l1,1.1a46.946,46.946,0,0,0,14-9.1h9.6c-2.5,10.7-9.8,16.7-24.8,20.9l.5,1.5c17.2-2.8,27.8-8.2,31.9-20.2,2.5,10.3,8.6,19.1,26,23.4.5-4.1,2.6-5.4,6.3-6l.1-1.3c-20-3.2-27.9-9.5-30.9-18.3Zm110.1-1h-22.7v-8c2.2-.4,2.9-1.3,3.1-2.6l-11.2-1.1V74.5H-155l.9,2.9h78.2c1.4,0,2.4-.5,2.7-1.6-3.7-3.3-9.6-7.7-9.6-7.7Zm-55.4,22.4H-72c1.5,0,2.4-.5,2.6-1.6-3.6-3.2-9.7-7.8-9.7-7.8L-84.3,94h-19.5A72.73,72.73,0,0,0-93,82.2c2.1.2,3.3-.6,3.7-1.8l-11.2-3A125.134,125.134,0,0,1-106.2,94h-37.3v-.1h1.5l-9.3-3.7V106c0,15-1.1,32.9-10.6,47.8l1.2,1.1c15.9-14.1,17.2-35.3,17.2-48.9Zm9-18.9c2.3,3.7,4.7,9.2,4.9,14,7.1,6.1,15.6-7.8-3.9-14.5Zm50.3,70.7h-20.6V132.3h23.9a2.31,2.31,0,0,0,2.5-1.5c-3.3-3.1-8.9-7.4-8.9-7.4l-4.8,6h-12.7V115.1h25.4c1.4,0,2.4-.5,2.7-1.6-3.6-3.2-9.2-7.4-9.2-7.4l-5,6.1h-13.9V103c2.3-.3,3.1-1.1,3.3-2.5l-11.2-1.1v12.8h-14.4a59.86,59.86,0,0,0,3.8-7.6c2.1.1,3.3-.8,3.6-2l-10.6-3.1c-2.4,10.9-7,21.1-12.1,27.6l1.4,1.1a49.43,49.43,0,0,0,12.1-13.1h16.2v14.3h-21.5l.8,2.9h20.7v16.4h-33.2l.9,2.9h73c1.4,0,2.4-.5,2.7-1.6-3.7-3.3-9.7-7.9-9.7-7.9ZM8.4,95.2a102.489,102.489,0,0,0,33-23.6c2.2.4,3.1.2,3.7-.9L34.7,64.5A97.907,97.907,0,0,1,7.3,93.6ZM4.3,122.6A92.538,92.538,0,0,0,41.8,97.1c2.3.5,3.2.1,3.8-.9l-10.7-6a92.4,92.4,0,0,1-31.5,31Zm-29.7-21.2V74.3h14.2v27.1Zm36.1,2.9c1.4,0,2.4-.5,2.7-1.6-3.4-3.2-8.9-7.9-8.9-7.9l-5,6.6H-3.3V74.3H8.4c1.4,0,2.4-.5,2.7-1.6-3.6-3.2-9.3-7.8-9.3-7.8l-5,6.5h-41l.8,2.9h10.2v27.1H-46.3l.8,2.9h12.3c-.2,17.4-1.9,35.5-13.4,50l1.3,1.1c17.5-13.6,19.7-33.5,19.9-51.1h14.2v50h1.4c4,0,6.4-1.9,6.5-2.5V104.3Zm25.8,11.2c-9.3,17.9-21.9,29.4-38.1,37.7l.8,1.6c18.6-6.4,33.4-16.3,44.7-32.6,2.2.4,3.2,0,3.9-1Zm95.1-49.2c4.5,2.4,10,7.1,12.1,11.2,7.7,3.6,11-11.4-11.3-12.2ZM160,129.9l-1.1-.3a101.278,101.278,0,0,1-4.9,11.7c-1,1.8-1.7,1.8-3.5.4a41.173,41.173,0,0,1-13.3-13.9,95.453,95.453,0,0,0,14.1-27.2c2.7.1,3.6-.5,4-1.8L143.4,95a96.861,96.861,0,0,1-9.9,25.6c-4.4-10-6.6-22-7.5-34.6h32.3a2.393,2.393,0,0,0,2.6-1.6c-3.6-3.2-9.7-7.9-9.7-7.9L146,83.1H125.8c-.4-5.3-.5-10.6-.4-16,2.5-.3,3.4-1.5,3.6-2.8L117.3,63c0,6.9.2,13.6.7,20.1H88.2l-9.4-3.7v25.3c0,16.8-1,35.1-10.9,49.8l1.3,1c16.1-13.8,17.6-34.7,17.6-50.3h16.5c-.4,16.8-1.5,25.2-3.3,26.9a3.631,3.631,0,0,1-2.9.9c-1.8,0-6.5-.4-9.1-.6l-.1,1.6c2.7.5,5.4,1.4,6.4,2.5,1.2,1.2,1.5,3.2,1.5,5.2,3.8,0,7-.8,9.3-2.9,3.8-3.3,5.2-12.2,5.8-32.6,2-.2,3.2-.7,3.9-1.5L106.6,98l-4.2,4.3H86.8V86h31.4c1.4,16,4.4,30.5,10.4,42.4a81.758,81.758,0,0,1-28.1,24.8l.9,1.3a80.534,80.534,0,0,0,30.4-20.4,51.971,51.971,0,0,0,14.5,15.4c4.7,3.5,11.6,6.5,14.4,3.1,1-1.1.7-3-2.5-7.3Zm93.8-36.8a14.348,14.348,0,0,1,4.9,3.5c1.4,1.5,1.2,2.5-.5,3.5-5.6,3-15.2,7-23,11.2-1.1-7.1-5-11.3-11.2-11.3-4,0-7.7,1.8-11,3.6-.7.4-1-.1-.6-.7a107.7,107.7,0,0,0,9-13.5c10.3-1.9,20-5.3,23.9-7.2,2.1-1.1,3-2.1,3-3.5,0-2.4-2.4-3.2-5-3.2-1.5,0-2.2,1-6.2,2.7a99.3,99.3,0,0,1-11.8,4c1.2-2.3,2.4-4.7,3.2-6.3,1-2.1,1.8-2.9,1.8-4.3,0-2.7-7-4.3-10.4-4.3a18.093,18.093,0,0,0-6.1,1.3l-.1,1.7a23.519,23.519,0,0,1,5.8,1.8c1.9.9,2.1,1.8,1.6,3.5a42.837,42.837,0,0,1-3,8.3,51.629,51.629,0,0,1-9.2,1c-7.2.1-9.5-2.2-13.3-6L193.7,80c3.6,7.9,5.4,10.9,13.5,10.9a62.72,62.72,0,0,0,7.4-.5,90.469,90.469,0,0,1-13.7,18.2c-4.4,4.5-8,6.8-7.9,9.8,0,2.9,1.4,4.9,3.8,4.8,2.8-.1,5.7-5.3,9.2-9.2,4-4.5,10.6-10.5,16-10.5,5.1,0,6.7,3.1,7,11.4-11.2,7.1-20.8,15.3-20.8,23.5,0,8.1,6.2,14.2,25,14.2,8.5,0,18.8-1.6,22.4-2.7,3.4-1,4.1-2.3,4.1-4.2,0-2.6-2.5-3.8-6.5-3.8-4.5,0-10.3,3.2-25.1,3.2-9.6,0-15.3-2.6-15.3-7.7,0-5.7,7-11.8,16.2-17.2-.1,5.1-.5,10-.5,12.5,0,3.1,2,4.3,4.1,4.3,2.4,0,3.7-1.8,3.7-4.5,0-3.4-.1-10.1-.5-15.8a194.786,194.786,0,0,1,27.6-10.6c4.2-1.2,5.7-1.4,5.7-3.6,0-3-3.2-6.8-6-8.6-2-1.3-4.2-2-8.2-2.5Z" transform="translate(700 316)" fill="#fff"/>
  </g>
</svg>
