<svg xmlns="http://www.w3.org/2000/svg" xmlns:xlink="http://www.w3.org/1999/xlink" width="25" height="30" viewBox="0 0 25 30">
  <defs>
    <clipPath id="clip-path">
      <rect id="長方形_25073" data-name="長方形 25073" width="25" height="30" transform="translate(-24349 -13308)" fill="none" stroke="#707070" stroke-width="1"/>
    </clipPath>
  </defs>
  <g id="マスクグループ_17551" data-name="マスクグループ 17551" transform="translate(24349 13308)" clip-path="url(#clip-path)">
    <g id="グループ_18180" data-name="グループ 18180" transform="translate(-24351 -13307.619)">
      <g id="グループ_18182" data-name="グループ 18182" transform="translate(4 4)">
        <path id="パス_46667" data-name="パス 46667" d="M44.713,12.188H42.707a.5.5,0,0,1,0-1h1.506V4.5H28.5v6.688h1.506a.5.5,0,0,1,0,1H28a.5.5,0,0,1-.5-.5V4a.5.5,0,0,1,.5-.5H44.713a.5.5,0,0,1,.5.5v7.688A.5.5,0,0,1,44.713,12.188Z" transform="translate(-25.994 -4)" fill="#173697"/>
        <path id="パス_46668" data-name="パス 46668" d="M71.164,109.579h0l-11.417-.033a.5.5,0,0,1-.477-.646l3.969-13.009a.5.5,0,0,1,.478-.354h3.469a.5.5,0,0,1,.478.354l3.979,13.043a.5.5,0,0,1-.478.646Zm-10.743-1.031,10.067.029L66.815,96.537H64.086Z" transform="translate(-55.089 -88.346)" fill="#173697"/>
        <path id="パス_46669" data-name="パス 46669" d="M7.689,158.378H6.015a1.5,1.5,0,0,1-1.459-1.143L3.515,153.02a.5.5,0,0,1,.1-.437l1.76-2.145a.5.5,0,0,1,.872.2l.969,3.94a.168.168,0,0,0,.164.128h1.16a.5.5,0,0,1,0,1H7.378a1.166,1.166,0,0,1-1.135-.89l-.73-2.971-.967,1.179L5.527,157a.5.5,0,0,0,.488.382H7.689a.5.5,0,0,1,0,1Z" transform="translate(-4 -138.491)" fill="#173697"/>
        <path id="パス_46670" data-name="パス 46670" d="M39.742,121.6H39a1.166,1.166,0,0,1-1.135-.89l-.861-3.512a.5.5,0,0,1,.1-.44l1.436-1.714a.5.5,0,0,1,.867.2l.784,3.019.248-.007a.5.5,0,0,1,.028,1l-.391.011h-.015a.834.834,0,0,1-.8-.624l-.573-2.207-.65.776.8,3.266A.168.168,0,0,0,39,120.6h.739a.5.5,0,1,1,0,1Z" transform="translate(-34.694 -106.054)" fill="#173697"/>
        <path id="パス_46671" data-name="パス 46671" d="M68.448,88.07a.5.5,0,0,1-.485-.379l-.822-3.284a.5.5,0,0,1,.1-.436l1.212-1.5a.5.5,0,0,1,.876.2l.486,2.107a.5.5,0,1,1-.974.225L68.58,83.9l-.409.506.762,3.042a.5.5,0,0,1-.485.622Z" transform="translate(-62.309 -76.205)" fill="#173697"/>
        <path id="パス_46672" data-name="パス 46672" d="M200.592,158.378h-1.674a.5.5,0,0,1,0-1h1.674a.5.5,0,0,0,.488-.382l.981-3.973-.967-1.179-.73,2.971a1.166,1.166,0,0,1-1.135.89h-1.16a.5.5,0,1,1,0-1h1.16a.168.168,0,0,0,.164-.128l.969-3.941a.5.5,0,0,1,.872-.2l1.76,2.145a.5.5,0,0,1,.1.437l-1.041,4.216A1.5,1.5,0,0,1,200.592,158.378Z" transform="translate(-181.852 -138.491)" fill="#173697"/>
        <path id="パス_46673" data-name="パス 46673" d="M184.855,121.6h-.739a.5.5,0,0,1,0-1h.739a.168.168,0,0,0,.164-.128l.8-3.266-.65-.776-.573,2.207a.834.834,0,0,1-.8.625h-.015l-.391-.011a.5.5,0,0,1,.028-1l.248.007.784-3.019a.5.5,0,0,1,.867-.2l1.436,1.714a.5.5,0,0,1,.1.44l-.861,3.512A1.166,1.166,0,0,1,184.855,121.6Z" transform="translate(-168.409 -106.054)" fill="#173697"/>
        <path id="パス_46674" data-name="パス 46674" d="M169.31,88.07a.5.5,0,0,1-.485-.622l.762-3.042-.409-.506-.255,1.107a.5.5,0,1,1-.974-.225l.486-2.107a.5.5,0,0,1,.876-.2l1.212,1.5a.5.5,0,0,1,.1.436l-.822,3.284A.5.5,0,0,1,169.31,88.07Z" transform="translate(-154.694 -76.205)" fill="#173697"/>
      </g>
    </g>
  </g>
</svg>
