<svg xmlns="http://www.w3.org/2000/svg" xmlns:xlink="http://www.w3.org/1999/xlink" width="20" height="25" viewBox="0 0 20 25">
  <defs>
    <clipPath id="clip-path">
      <rect id="長方形_24913" data-name="長方形 24913" width="20" height="25" transform="translate(21 28)" fill="none" stroke="#707070" stroke-width="1"/>
    </clipPath>
    <clipPath id="clip-path-2">
      <rect id="長方形_24268" data-name="長方形 24268" width="18.119" height="21.447" fill="none" stroke="#173697" stroke-width="2"/>
    </clipPath>
  </defs>
  <g id="マスクグループ_15860" data-name="マスクグループ 15860" transform="translate(-21 -28)" clip-path="url(#clip-path)">
    <g id="グループ_16391" data-name="グループ 16391" transform="translate(22.113 30.182)">
      <g id="グループ_16392" data-name="グループ 16392">
        <g id="グループ_16391-2" data-name="グループ 16391" clip-path="url(#clip-path-2)">
          <path id="パス_46416" data-name="パス 46416" d="M7.076,6.077H23.833a1,1,0,0,1,1,1V27.16a1,1,0,0,1-1,1h-5.34a1,1,0,0,1-1-1V23.645H13.417V27.16a1,1,0,0,1-1,1H7.076a1,1,0,0,1-1-1V7.077A1,1,0,0,1,7.076,6.077Zm15.757,2H8.076V26.16h3.34V22.645a1,1,0,0,1,1-1h6.076a1,1,0,0,1,1,1V26.16h3.34Z" transform="translate(-6.395 -6.395)" fill="#173697"/>
        </g>
      </g>
      <path id="線_2939" data-name="線 2939" d="M2,1H0A1,1,0,0,1-1,0,1,1,0,0,1,0-1H2A1,1,0,0,1,3,0,1,1,0,0,1,2,1Z" transform="translate(5.293 5.931)" fill="#173697"/>
      <path id="線_2940" data-name="線 2940" d="M2,1H0A1,1,0,0,1-1,0,1,1,0,0,1,0-1H2A1,1,0,0,1,3,0,1,1,0,0,1,2,1Z" transform="translate(10.822 5.931)" fill="#173697"/>
      <path id="線_2941" data-name="線 2941" d="M2,1H0A1,1,0,0,1-1,0,1,1,0,0,1,0-1H2A1,1,0,0,1,3,0,1,1,0,0,1,2,1Z" transform="translate(5.293 10.747)" fill="#173697"/>
      <path id="線_2942" data-name="線 2942" d="M2,1H0A1,1,0,0,1-1,0,1,1,0,0,1,0-1H2A1,1,0,0,1,3,0,1,1,0,0,1,2,1Z" transform="translate(10.822 10.747)" fill="#173697"/>
    </g>
  </g>
</svg>
