<svg xmlns="http://www.w3.org/2000/svg" xmlns:xlink="http://www.w3.org/1999/xlink" width="25" height="30" viewBox="0 0 25 30">
  <defs>
    <clipPath id="clip-path">
      <rect id="長方形_25067" data-name="長方形 25067" width="25" height="30" transform="translate(-24350 -17199)" fill="none" stroke="#707070" stroke-width="1"/>
    </clipPath>
  </defs>
  <g id="マスクグループ_17545" data-name="マスクグループ 17545" transform="translate(24350 17199)" clip-path="url(#clip-path)">
    <g id="グループ_18155" data-name="グループ 18155" transform="translate(-24348.838 -17195.191)">
      <g id="グループ_18157" data-name="グループ 18157" transform="translate(0)">
        <path id="パス_46628" data-name="パス 46628" d="M259.011,190.181l.014.029-.014-.03h0" transform="translate(-249.256 -183.017)" fill="#173697"/>
        <path id="パス_46629" data-name="パス 46629" d="M20.211,282.033H.6a.6.6,0,0,1-.593-.713l2.112-11.463a.6.6,0,0,1,.593-.494H8.286a.6.6,0,1,1,0,1.207H3.217L1.328,280.826H19.709L21.6,270.57H15.786a.6.6,0,1,1,0-1.207h6.536a.6.6,0,0,1,.593.713L20.8,281.539a.6.6,0,0,1-.593.494" transform="translate(0 -259.218)" fill="#173697"/>
        <path id="パス_46630" data-name="パス 46630" d="M174.134,297.266a.6.6,0,0,1-.594-.713l2-10.867a.6.6,0,0,1,1.187.219l-2,10.867a.6.6,0,0,1-.593.494" transform="translate(-166.994 -274.451)" fill="#173697"/>
        <path id="パス_46631" data-name="パス 46631" d="M347.665,282.03a.6.6,0,0,1-.594-.713l2.112-11.463a.6.6,0,1,1,1.187.219l-2.112,11.463a.6.6,0,0,1-.593.494" transform="translate(-333.99 -259.214)" fill="#173697"/>
        <path id="パス_46632" data-name="パス 46632" d="M162.24,15.424h0a.6.6,0,0,1-.466-.225l-4.3-5.332-.006-.008a6.049,6.049,0,0,1-1.287-3.752,6.109,6.109,0,1,1,12.217,0A6.049,6.049,0,0,1,167.11,9.86l-.01.013L162.706,15.2a.6.6,0,0,1-.466.22m-3.824-6.31,3.829,4.751,3.918-4.754a4.852,4.852,0,0,0,1.028-3,4.9,4.9,0,1,0-9.8,0,4.853,4.853,0,0,0,1.03,3.006m8.218.375h0Z" transform="translate(-150.298)" fill="#173697"/>
        <path id="パス_46633" data-name="パス 46633" d="M240.963,88.195a3.029,3.029,0,1,1,3.029-3.029,3.033,3.033,0,0,1-3.029,3.029m0-4.852a1.823,1.823,0,1,0,1.823,1.823,1.825,1.825,0,0,0-1.823-1.823" transform="translate(-228.972 -79.042)" fill="#173697"/>
      </g>
    </g>
  </g>
</svg>
