<svg xmlns="http://www.w3.org/2000/svg" xmlns:xlink="http://www.w3.org/1999/xlink" width="25" height="30" viewBox="0 0 25 30">
  <defs>
    <clipPath id="clip-path">
      <rect id="長方形_25076" data-name="長方形 25076" width="25" height="30" transform="translate(-23648 -13307)" fill="none" stroke="#707070" stroke-width="1"/>
    </clipPath>
  </defs>
  <g id="マスクグループ_17554" data-name="マスクグループ 17554" transform="translate(23648 13307)" clip-path="url(#clip-path)">
    <g id="グループ_18186" data-name="グループ 18186" transform="translate(-23646.039 -13301.541)">
      <g id="グループ_18188" data-name="グループ 18188">
        <path id="パス_46678" data-name="パス 46678" d="M10.04,18.921a8.882,8.882,0,1,1,8.882-8.882,8.882,8.882,0,0,1-8.882,8.882M10.04,0a10.04,10.04,0,1,0,10.04,10.04A10.04,10.04,0,0,0,10.04,0" fill="#173697"/>
        <path id="パス_46679" data-name="パス 46679" d="M159.823,105.3a1.123,1.123,0,0,1,0-2.246,1.123,1.123,0,0,1,0,2.246m3.689-8.691c-.049,1.476-1.3,2.706-2.345,3.673l-.1.082a.424.424,0,0,0-.148.344v.8a.729.729,0,0,1-.738.754h-.721a.723.723,0,0,1-.754-.754V99.957a.792.792,0,0,1,.23-.574c.18-.18.344-.3.525-.476.836-.787,1.787-1.705,1.836-2.312v-.049a1.358,1.358,0,0,0-1.361-1.361,1.312,1.312,0,0,0-1.115.574,1.29,1.29,0,0,0-.164.771.783.783,0,0,1-.033.41l-.016.016a.543.543,0,0,1-.492.262h-.787a.731.731,0,0,1-.771-.59v-.016a3.023,3.023,0,0,1,.049-1.23l.033-.082a3.207,3.207,0,0,1,3.3-2.3,3.614,3.614,0,0,1,3.575,3.509Z" transform="translate(-149.981 -89.114)" fill="#173697"/>
      </g>
    </g>
  </g>
</svg>
