<svg xmlns="http://www.w3.org/2000/svg" xmlns:xlink="http://www.w3.org/1999/xlink" width="30" height="30" viewBox="0 0 30 30">
  <defs>
    <clipPath id="clip-path">
      <rect id="長方形_25149" data-name="長方形 25149" width="30" height="30" transform="translate(438 666)" fill="none" stroke="#707070" stroke-width="1"/>
    </clipPath>
  </defs>
  <g id="マスクグループ_20200" data-name="マスクグループ 20200" transform="translate(-438 -666)" clip-path="url(#clip-path)">
    <g id="グループ_20179" data-name="グループ 20179" transform="translate(440.998 668.957)">
      <g id="グループ_20179-2" data-name="グループ 20179" transform="translate(0 0)">
        <path id="パス_46375" data-name="パス 46375" d="M1.614,3.652H22.27a1.484,1.484,0,0,1,1.614,1.283v12.49a1.486,1.486,0,0,1-1.614,1.283H1.614A1.484,1.484,0,0,1,0,17.425V4.935A1.482,1.482,0,0,1,1.614,3.652" transform="translate(0 -1.334)" fill="#8ab0f2"/>
        <path id="パス_46376" data-name="パス 46376" d="M21.743,37.6c-1.226-.763-3.887-1.292-6.973-1.292a15.826,15.826,0,0,0-6.822,1.2" transform="translate(-2.904 -13.264)" fill="none" stroke="#abc8d7" stroke-linecap="round" stroke-linejoin="round" stroke-width="1.111"/>
        <line id="線_2891" data-name="線 2891" y2="5.306" transform="translate(13.247 17.487)" fill="none" stroke="#abc8d7" stroke-linecap="round" stroke-linejoin="round" stroke-width="1.111"/>
        <line id="線_2892" data-name="線 2892" y1="5.38" transform="translate(10.637 17.413)" fill="none" stroke="#abc8d7" stroke-linecap="round" stroke-linejoin="round" stroke-width="1.111"/>
        <path id="パス_46377" data-name="パス 46377" d="M16.759,2.117V1.256a.7.7,0,0,1,.7-.7h1.21a.7.7,0,0,1,.7.7v.936" transform="translate(-6.122 -0.203)" fill="#8ab0f2" stroke="#abc8d7" stroke-linecap="round" stroke-linejoin="round" stroke-width="1.111"/>
        <line id="線_2893" data-name="線 2893" y2="4.099" transform="translate(6.52 4.838)" fill="none" stroke="#2c53a1" stroke-linecap="round" stroke-linejoin="round" stroke-width="1.111"/>
        <line id="線_2894" data-name="線 2894" x2="2.242" transform="translate(6.519 4.838)" fill="none" stroke="#2c53a1" stroke-linecap="round" stroke-linejoin="round" stroke-width="1.111"/>
        <line id="線_2895" data-name="線 2895" x2="1.767" transform="translate(6.519 6.887)" fill="none" stroke="#2c53a1" stroke-linecap="round" stroke-linejoin="round" stroke-width="1.111"/>
        <path id="パス_46378" data-name="パス 46378" d="M17.155,7.623h.568a.869.869,0,0,1,.947.753v2.592a.87.87,0,0,1-.947.753h-.568a.87.87,0,0,1-.948-.753V8.376A.87.87,0,0,1,17.155,7.623Z" transform="translate(-5.921 -2.785)" fill="#8ab0f2" stroke="#2c53a1" stroke-linecap="round" stroke-linejoin="round" stroke-width="1.111"/>
        <line id="線_2896" data-name="線 2896" y2="4.099" transform="translate(14.787 4.838)" fill="none" stroke="#2c53a1" stroke-linecap="round" stroke-linejoin="round" stroke-width="1.111"/>
        <line id="線_2897" data-name="線 2897" x2="1.388" y2="1.824" transform="translate(15.976 7.165)" fill="none" stroke="#2c53a1" stroke-linecap="round" stroke-linejoin="round" stroke-width="1.111"/>
        <path id="パス_46379" data-name="パス 46379" d="M23.3,7.623h1.684a.82.82,0,0,1,.894.71v.83a.821.821,0,0,1-.894.71H23.3" transform="translate(-8.511 -2.785)" fill="#8ab0f2" stroke="#2c53a1" stroke-linecap="round" stroke-linejoin="round" stroke-width="1.111"/>
        <line id="線_2898" data-name="線 2898" y2="4.099" transform="translate(17.387 10.869)" fill="none" stroke="#2c53a1" stroke-linecap="round" stroke-linejoin="round" stroke-width="1.111"/>
        <line id="線_2899" data-name="線 2899" x2="2.242" transform="translate(17.386 10.87)" fill="none" stroke="#2c53a1" stroke-linecap="round" stroke-linejoin="round" stroke-width="1.111"/>
        <line id="線_2900" data-name="線 2900" x2="1.767" transform="translate(17.386 12.919)" fill="none" stroke="#2c53a1" stroke-linecap="round" stroke-linejoin="round" stroke-width="1.111"/>
        <line id="線_2901" data-name="線 2901" x2="2.242" transform="translate(17.386 14.968)" fill="none" stroke="#2c53a1" stroke-linecap="round" stroke-linejoin="round" stroke-width="1.111"/>
        <line id="線_2902" data-name="線 2902" x2="2.444" transform="translate(8.776 14.175)" fill="none" stroke="#ccc" stroke-linecap="round" stroke-linejoin="round" stroke-width="1.111"/>
        <line id="線_2903" data-name="線 2903" y2="4.099" transform="translate(13.257 10.869)" fill="none" stroke="#2c53a1" stroke-linecap="round" stroke-linejoin="round" stroke-width="1.111"/>
        <path id="パス_46380" data-name="パス 46380" d="M8.956,17.216l-.849-.072c-2.494-.214-2.267,1.69-.385,2.032s2.11,2.246-.385,2.032l-.849-.072" transform="translate(-2.292 -6.257)" fill="#8ab0f2" stroke="#2c53a1" stroke-linecap="round" stroke-linejoin="round" stroke-width="1.111"/>
        <path id="パス_46381" data-name="パス 46381" d="M16.356,21.224l-1.093-4.1-.621.008-.037-.008-1.093,4.1" transform="translate(-4.936 -6.256)" fill="#8ab0f2" stroke="#2c53a1" stroke-linecap="round" stroke-linejoin="round" stroke-width="1.111"/>
        <line id="線_2904" data-name="線 2904" x2="2.242" transform="translate(13.256 14.968)" fill="none" stroke="#2c53a1" stroke-linecap="round" stroke-linejoin="round" stroke-width="1.111"/>
      </g>
    </g>
  </g>
</svg>
