<svg xmlns="http://www.w3.org/2000/svg" width="1400" height="190.002" viewBox="0 0 1400 190.002">
  <path id="前面オブジェクトで型抜き_2" data-name="前面オブジェクトで型抜き 2" d="M20831,24909H19431v-190l1.566,0c23.809,13.961,48.7,27.361,73.969,39.832,25.379,12.521,51.787,24.42,78.494,35.365,26.857,11,54.668,21.311,82.662,30.635,28.2,9.391,57.291,18.021,86.473,25.648,29.436,7.691,59.691,14.557,89.926,20.4,30.563,5.9,61.857,10.914,93.02,14.893,31.541,4.025,63.758,7.1,95.756,9.123,32.4,2.059,65.418,3.1,98.135,3.1,32.686,0,65.7-1.043,98.135-3.1,31.977-2.027,64.193-5.1,95.758-9.125,31.189-3.982,62.486-8.992,93.02-14.893,30.234-5.844,60.49-12.709,89.926-20.4,29.156-7.621,58.248-16.25,86.473-25.65,27.986-9.32,55.8-19.627,82.664-30.637,26.7-10.939,53.109-22.838,78.492-35.363,25.275-12.469,50.162-25.871,73.967-39.83l1.566,0v190h0v0h0Z" transform="translate(-19430.998 -24718.998)" fill="#e8edf5"/>
</svg>
