<svg id="グループ_16807" data-name="グループ 16807" xmlns="http://www.w3.org/2000/svg" xmlns:xlink="http://www.w3.org/1999/xlink" width="58" height="58" viewBox="0 0 58 58">
  <defs>
    <clipPath id="clip-path">
      <rect id="長方形_24270" data-name="長方形 24270" width="36.937" height="28.669" fill="none" stroke="#173697" stroke-width="0.7"/>
    </clipPath>
  </defs>
  <rect id="長方形_24238" data-name="長方形 24238" width="58" height="58" rx="29" fill="#fff" opacity="0.9"/>
  <g id="グループ_16399" data-name="グループ 16399" transform="translate(9.987 13.09)">
    <g id="グループ_16399-2" data-name="グループ 16399" clip-path="url(#clip-path)">
      <path id="パス_46420" data-name="パス 46420" d="M212.559,8.457l3.572-2.587h-4.4a.348.348,0,0,1-.331-.24l-1.393-4.256L208.614,5.63a.348.348,0,0,1-.331.24h-4.4l3.572,2.587a.348.348,0,0,1,.127.391l-1.394,4.246,3.615-2.62a.348.348,0,0,1,.409,0l4.075,2.953a.348.348,0,0,1-.409.564l-3.87-2.8-4.214,3.054a.348.348,0,0,1-.315.048l-.046-.015a.348.348,0,0,1-.221-.439l1.63-4.962L202.69,5.865a.348.348,0,0,1-.144-.282V5.521a.348.348,0,0,1,.348-.348h5.136L209.646.24a.348.348,0,0,1,.331-.24h.062a.348.348,0,0,1,.331.24l1.615,4.933h5.136a.348.348,0,0,1,.348.348v.062a.348.348,0,0,1-.144.282l-4.143,3,1.329,3.579a.348.348,0,1,1-.653.242" transform="translate(-185.953)" fill="#173697" stroke="#173697" stroke-width="0.7"/>
      <path id="パス_46421" data-name="パス 46421" d="M.648,212.45c2.676-.468,8.033-1.337,9.446-1.565l-1.589-9.2c-1.221.241-5.365,1.06-8.089,1.6a.348.348,0,1,1-.137-.683c3.21-.642,8.389-1.664,8.441-1.674a.349.349,0,0,1,.411.282l1.709,9.9a.348.348,0,0,1-.288.4c-.067.011-6.705,1.081-9.784,1.62" transform="translate(0 -184.468)" fill="#173697" stroke="#173697" stroke-width="0.7"/>
      <path id="パス_46422" data-name="パス 46422" d="M149.2,197.169a43.858,43.858,0,0,1-6.042-.578,11.655,11.655,0,0,0-4.124.25.348.348,0,0,1-.417-.274l-.982-5.108a.348.348,0,0,1,.159-.362,14.067,14.067,0,0,1,3.018-1.572,9.661,9.661,0,0,1,3.4-.367c.536.051,1.122.129,1.688.2.686.09,1.334.175,1.833.208.692.045,3.324-.107,4.738-.188.447-.026.769-.044.9-.05a2.4,2.4,0,0,1,2.362,1.131,5.272,5.272,0,0,0,1.766-.042,5.4,5.4,0,0,0,2.847-1.489c.826-1.05,1.7-1.142,2.249-.877a1.27,1.27,0,0,1,.661,1.461,24.016,24.016,0,0,1-3.932,4.5,45.118,45.118,0,0,1-8.677,3.061,8.433,8.433,0,0,1-1.444.1m-7.285-1.368a8.455,8.455,0,0,1,1.356.1,30.7,30.7,0,0,0,7.248.481,45.25,45.25,0,0,0,8.415-2.954,26.784,26.784,0,0,0,3.647-4.1.569.569,0,0,0-.292-.65c-.3-.146-.826-.044-1.4.681a6.052,6.052,0,0,1-3.312,1.75,4.33,4.33,0,0,1-2.268-.077.348.348,0,0,1-.127-.128,1.708,1.708,0,0,0-1.788-.879c-.125,0-.461.024-.887.049-1.978.114-4.145.232-4.823.188-.522-.034-1.181-.121-1.879-.212-.56-.074-1.139-.15-1.664-.2a9.048,9.048,0,0,0-3.16.349,12.8,12.8,0,0,0-2.617,1.364l.87,4.524a14.062,14.062,0,0,1,2.68-.286" transform="translate(-126.355 -172.531)" fill="#173697" stroke="#173697" stroke-width="0.7"/>
      <path id="パス_46423" data-name="パス 46423" d="M108.48,222a.348.348,0,0,1-.064-.691l2.021-.378a.14.14,0,0,0,.095-.058.135.135,0,0,0,.021-.1l-1.512-7.652a.136.136,0,0,0-.164-.106l-.013,0-1.6.308a.348.348,0,0,1-.132-.684l1.593-.306a.833.833,0,0,1,1,.651l1.512,7.652a.833.833,0,0,1-.677.982l-2.016.377a.352.352,0,0,1-.064.006" transform="translate(-98.098 -194.917)" fill="#173697" stroke="#173697" stroke-width="0.7"/>
      <path id="パス_46424" data-name="パス 46424" d="M251.794,222.451a.348.348,0,0,1-.035-.695c1.984-.206,7.337-.994,7.8-1.129a.3.3,0,0,0,.157-.441.348.348,0,0,1,.649-.252.993.993,0,0,1-.512,1.325c-.345.172-6.407,1.022-8.028,1.19l-.036,0m7.755-1.816h0" transform="translate(-230.848 -201.713)" fill="#173697" stroke="#173697" stroke-width="0.7"/>
    </g>
  </g>
</svg>
