<svg id="グループ_16808" data-name="グループ 16808" xmlns="http://www.w3.org/2000/svg" width="58" height="58" viewBox="0 0 58 58">
  <rect id="長方形_24238" data-name="長方形 24238" width="58" height="58" rx="29" fill="#fff" opacity="0.9"/>
  <g id="グループ_16396" data-name="グループ 16396" transform="translate(8.708 10.027)">
    <g id="グループ_15868" data-name="グループ 15868" transform="translate(0 -1)">
      <path id="パス_46325" data-name="パス 46325" d="M2.154,233.877c0-.28.009-.56.023-.836l-2.15-.193Q0,233.366,0,233.891a20.2,20.2,0,0,0,.492,4.442l2.082-.6a17.962,17.962,0,0,1-.42-3.858" transform="translate(0 -213.784)" fill="#173697"/>
      <path id="パス_46326" data-name="パス 46326" d="M6.258,145.643l-1.934-.964A19.98,19.98,0,0,0,2.784,149.9l2.15.193a17.721,17.721,0,0,1,1.324-4.453" transform="translate(-2.556 -132.833)" fill="#173697"/>
      <path id="パス_46327" data-name="パス 46327" d="M14.669,316.122l-2.085.6a20.054,20.054,0,0,0,2.463,4.962l1.737-1.32a17.836,17.836,0,0,1-2.115-4.241" transform="translate(-11.554 -290.24)" fill="#173697"/>
      <path id="パス_46328" data-name="パス 46328" d="M37.562,71.937l-1.46-1.6a20.208,20.208,0,0,0-3.33,4.3l1.94.966a18.045,18.045,0,0,1,2.85-3.666" transform="translate(-30.089 -64.577)" fill="#173697"/>
      <path id="パス_46329" data-name="パス 46329" d="M341.752,23.913l-1.5,1.641A17.8,17.8,0,0,0,336.33,23.1l.794-2.064a17.631,17.631,0,0,1,4.629,2.878" transform="translate(-308.793 -19.313)" fill="#173697"/>
      <path id="パス_46330" data-name="パス 46330" d="M448.026,152.708l2.229-.21a19.99,19.99,0,0,0-1.469-5.178l-2,1a17.786,17.786,0,0,1,1.243,4.39" transform="translate(-410.203 -135.258)" fill="#173697"/>
      <path id="パス_46331" data-name="パス 46331" d="M404.683,77.708l2.031-1a20.2,20.2,0,0,0-3.26-4.309l-1.5,1.618a17.979,17.979,0,0,1,2.732,3.686" transform="translate(-369.041 -66.476)" fill="#173697"/>
      <path id="パス_46332" data-name="パス 46332" d="M373.472,387.35l1.18,1.911a20.242,20.242,0,0,0,3.985-3.729l-1.794-1.353a18.169,18.169,0,0,1-3.371,3.171" transform="translate(-342.894 -352.724)" fill="#173697"/>
      <path id="パス_46333" data-name="パス 46333" d="M459.705,235.809a17.686,17.686,0,0,1-.412,3.813l2.163.622a20.194,20.194,0,0,0,.487-4.421q0-.438-.019-.871l-2.232.211c.008.216.012.429.012.646" transform="translate(-421.689 -215.715)" fill="#173697"/>
      <path id="パス_46334" data-name="パス 46334" d="M59.215,387.406l-1.74,1.323a20.24,20.24,0,0,0,4.049,3.674l1.155-1.868a18.14,18.14,0,0,1-3.463-3.129" transform="translate(-52.769 -355.687)" fill="#173697"/>
      <path id="パス_46335" data-name="パス 46335" d="M300.91,437.877l.413,2.191a20,20,0,0,0,5.016-2.015l-1.176-1.9a17.824,17.824,0,0,1-4.253,1.728" transform="translate(-276.273 -400.439)" fill="#173697"/>
      <path id="パス_46336" data-name="パス 46336" d="M429.114,319.6l1.8,1.356a20.048,20.048,0,0,0,2.3-4.731l-2.158-.62a17.872,17.872,0,0,1-1.94,3.995" transform="translate(-393.98 -289.762)" fill="#173697"/>
      <path id="パス_46337" data-name="パス 46337" d="M217.324,462.32a18.188,18.188,0,0,1-2.087-.123l-.41,2.174a20.358,20.358,0,0,0,5.494-.057l-.411-2.182a18.078,18.078,0,0,1-2.586.189" transform="translate(-197.238 -424.294)" fill="#173697"/>
      <path id="パス_46338" data-name="パス 46338" d="M263.755,3.165l.792-2.058A20.059,20.059,0,0,0,259.318.12V2.308a17.8,17.8,0,0,1,4.437.857" transform="translate(-238.086 -0.11)" fill="#173697"/>
      <path id="パス_46339" data-name="パス 46339" d="M128.956,438.415l-1.157,1.872a19.992,19.992,0,0,0,5.151,1.96l.408-2.167a17.793,17.793,0,0,1-4.4-1.665" transform="translate(-117.336 -402.52)" fill="#173697"/>
      <path id="パス_46340" data-name="パス 46340" d="M175.2,2.184V0a20.07,20.07,0,0,0-5.317.959l.788,2.031a17.768,17.768,0,0,1,4.53-.806" transform="translate(-155.971)" fill="#173697"/>
      <path id="パス_46341" data-name="パス 46341" d="M97.056,22.462l-.786-2.028a20.125,20.125,0,0,0-4.523,2.75L93.21,24.79a18.016,18.016,0,0,1,3.846-2.328" transform="translate(-84.234 -18.761)" fill="#173697"/>
      <path id="パス_46342" data-name="パス 46342" d="M95.87,191.226a1.494,1.494,0,0,0-1.4-.885,1.291,1.291,0,0,0-1.349,1.263c0,.7.723,1.025,1.273,1.273l.54.237c1.058.464,1.953.993,1.953,2.288a2.568,2.568,0,0,1-5.094.41l.885-.248a1.676,1.676,0,0,0,1.63,1.511,1.636,1.636,0,0,0,1.673-1.586c0-.95-.745-1.273-1.5-1.619l-.5-.216c-.95-.432-1.77-.917-1.77-2.083a2.136,2.136,0,0,1,2.277-2.072,2.335,2.335,0,0,1,2.1,1.263Z" transform="translate(-84.276 -173.984)" fill="#173697"/>
      <path id="パス_46343" data-name="パス 46343" d="M170.217,191.213h1.532a4.436,4.436,0,0,1,3.173.982,4.179,4.179,0,0,1,.022,6.13,4.325,4.325,0,0,1-3.216,1.025h-1.511Zm1.565,7.3a3.413,3.413,0,0,0,2.568-.842,3.326,3.326,0,0,0-.043-4.824,3.5,3.5,0,0,0-2.525-.788h-.658v6.453Z" transform="translate(-156.281 -175.558)" fill="#173697"/>
      <path id="パス_46344" data-name="パス 46344" d="M261.824,193.686a3.87,3.87,0,0,1-.842,2.871,4.021,4.021,0,0,1-3.011,1.36,4.209,4.209,0,1,1,3.5-6.658l-.658.615a3.308,3.308,0,0,0-2.795-1.532,3.376,3.376,0,0,0-3.324,3.4,3.278,3.278,0,0,0,.95,2.3,3.419,3.419,0,0,0,2.309,1.036,2.791,2.791,0,0,0,2.9-2.547h-2.417v-.842Z" transform="translate(-233.006 -173.984)" fill="#173697"/>
      <path id="パス_46345" data-name="パス 46345" d="M365,228.249a.81.81,0,0,0-.691-.518.615.615,0,0,0-.626.561c0,.464.583.637,1.176.885a1.545,1.545,0,0,1,1.176,1.457,1.659,1.659,0,0,1-1.716,1.651A1.823,1.823,0,0,1,362.525,231l.766-.324c.216.475.464.809,1.036.809a.771.771,0,0,0,.82-.777c0-1.133-2.288-.745-2.288-2.342a1.445,1.445,0,0,1,1.511-1.435,1.532,1.532,0,0,1,1.349.939Z" transform="translate(-332.843 -208.352)" fill="#173697"/>
    </g>
  </g>
</svg>
