<svg xmlns="http://www.w3.org/2000/svg" width="26.434" height="21.601" viewBox="0 0 26.434 21.601">
  <g id="グループ_20155" data-name="グループ 20155" transform="translate(0 -0.001)">
    <g id="グループ_20156" data-name="グループ 20156" transform="translate(0 0.001)">
      <path id="パス_46764" data-name="パス 46764" d="M1.177,17.295V1.179H17.293v8.17L18.47,8.172V.591A.589.589,0,0,0,17.881,0H.589A.589.589,0,0,0,0,.591V17.883a.589.589,0,0,0,.589.589H9.727l.337-1.177Z" transform="translate(0 -0.002)" fill="#ff4500"/>
      <path id="パス_46765" data-name="パス 46765" d="M912.445,463.467l-2.822-2.822a.589.589,0,0,0-.416-.172h0a.589.589,0,0,0-.416.172l-4.138,4.138-1.177,1.177-6.049,6.049h0a.588.588,0,0,0-.15.254l-.113.394-.337,1.177-.681,2.381a.589.589,0,0,0,.728.728l3.953-1.13h0a.588.588,0,0,0,.072-.026h0a.582.582,0,0,0,.1-.054l0,0,.024-.018.005,0a.6.6,0,0,0,.049-.044l1.829-1.829,1.743-1.743,5.669-5.669,0,0,2.121-2.121a.589.589,0,0,0,0-.832M897.57,475.519l.482-1.685.082-.286.286.286,1.122,1.122Zm7.083-5.093-1.177,1.177-1.053,1.053-1.177,1.177-.58.58-.58-.58-1.177-1.177-.232-.232,4.8-4.8,1.177-1.177,2.431-2.431,1.99,1.99Zm5.253-5.253-1.99-1.99,1.291-1.29,1.99,1.99Z" transform="translate(-886.183 -455.364)" fill="#ff4500"/>
      <path id="パス_46766" data-name="パス 46766" d="M310.733,418.612H300.086a.589.589,0,1,0,0,1.177h10.648a.589.589,0,0,0,0-1.177" transform="translate(-296.174 -413.968)" fill="#ff4500"/>
      <path id="パス_46767" data-name="パス 46767" d="M311.322,779.989a.589.589,0,0,0-.589-.589H300.086a.589.589,0,1,0,0,1.177h10.648a.589.589,0,0,0,.589-.589" transform="translate(-296.174 -770.754)" fill="#ff4500"/>
      <path id="パス_46768" data-name="パス 46768" d="M300.085,1140.187a.589.589,0,0,0,0,1.177h7.207a.589.589,0,0,0,0-1.177Z" transform="translate(-296.173 -1127.538)" fill="#ff4500"/>
    </g>
  </g>
</svg>
