<svg xmlns="http://www.w3.org/2000/svg" width="26.525" height="18.688" viewBox="0 0 26.525 18.688">
  <g id="グループ_20153" data-name="グループ 20153" transform="translate(-1503.113 -384.082)">
    <path id="パス_23662" data-name="パス 23662" d="M938.557,1127.355a3.334,3.334,0,0,0-2.345-2.361c-2.069-.558-10.364-.558-10.364-.558s-8.294,0-10.363.558a3.334,3.334,0,0,0-2.345,2.361,37.547,37.547,0,0,0,0,12.852,3.334,3.334,0,0,0,2.345,2.361c2.069.558,10.363.558,10.363.558s8.295,0,10.364-.558a3.334,3.334,0,0,0,2.345-2.361,37.539,37.539,0,0,0,0-12.852" transform="translate(590.527 -740.355)" fill="red"/>
    <path id="パス_23663" data-name="パス 23663" d="M973.508,1163.51l6.933-3.944-6.933-3.944Z" transform="translate(540.154 -766.141)" fill="#fff"/>
  </g>
</svg>
