<svg xmlns="http://www.w3.org/2000/svg" width="23.5" height="22.391" viewBox="0 0 23.5 22.391">
  <path id="パス_46762" data-name="パス 46762" d="M5348.35,1114.957c0-5.258-5.271-9.535-11.75-9.535s-11.75,4.278-11.75,9.535c0,4.713,4.181,8.661,9.827,9.408.383.083.9.252,1.035.579a2.418,2.418,0,0,1,.038,1.062l-.167,1.006c-.052.3-.236,1.161,1.017.633a37.936,37.936,0,0,0,9.233-6.822h0a8.484,8.484,0,0,0,2.519-5.867m-15.9,2.807a.229.229,0,0,1-.229.229h-3.293a.227.227,0,0,1-.158-.064l0,0,0,0a.228.228,0,0,1-.064-.158v-5.119a.229.229,0,0,1,.229-.229h.825a.228.228,0,0,1,.228.229v4.066h2.239a.229.229,0,0,1,.229.229Zm1.987,0a.229.229,0,0,1-.229.228h-.824a.229.229,0,0,1-.229-.228v-5.12a.229.229,0,0,1,.229-.229h.824a.229.229,0,0,1,.229.229Zm5.673,0a.229.229,0,0,1-.229.228h-.825a.232.232,0,0,1-.059-.007h0l-.016-.005-.007,0-.011,0-.01-.006-.007,0-.014-.008,0,0a.214.214,0,0,1-.058-.056l-2.35-3.172v3.04a.229.229,0,0,1-.229.228h-.825a.229.229,0,0,1-.229-.228v-5.12a.229.229,0,0,1,.229-.229h.845l.012,0h.01l.013,0,.008,0,.013,0,.008,0,.013.006.007,0,.012.007.007,0,.012.008.006,0,.012.01,0,0,.015.014h0c.006.007.012.015.018.023l2.346,3.168v-3.041a.229.229,0,0,1,.229-.229h.825a.229.229,0,0,1,.229.229Zm4.551-4.3a.229.229,0,0,1-.229.229H5342.2v.865h2.239a.229.229,0,0,1,.229.229v.824a.228.228,0,0,1-.229.229H5342.2v.865h2.239a.229.229,0,0,1,.229.229v.824a.229.229,0,0,1-.229.229h-3.293a.227.227,0,0,1-.158-.064l0,0,0,0a.226.226,0,0,1-.064-.158v-5.119a.228.228,0,0,1,.063-.158l0,0,0,0a.228.228,0,0,1,.159-.064h3.293a.228.228,0,0,1,.229.229Z" transform="translate(-5324.85 -1105.422)" fill="#00b900"/>
</svg>
